<svg aria-roledescription="er" viewBox="0 0 1158.282470703125 898" style="max-width: 1158.28px; background-color: white;" xmlns:xlink="http://www.w3.org/1999/xlink" xmlns="http://www.w3.org/2000/svg" width="100%" id="mermaid-0"><style>#mermaid-0{font-family:"trebuchet ms",verdana,arial,sans-serif;font-size:16px;fill:#000000;}#mermaid-0 .error-icon{fill:#552222;}#mermaid-0 .error-text{fill:#552222;stroke:#552222;}#mermaid-0 .edge-thickness-normal{stroke-width:2px;}#mermaid-0 .edge-thickness-thick{stroke-width:3.5px;}#mermaid-0 .edge-pattern-solid{stroke-dasharray:0;}#mermaid-0 .edge-pattern-dashed{stroke-dasharray:3;}#mermaid-0 .edge-pattern-dotted{stroke-dasharray:2;}#mermaid-0 .marker{fill:#000000;stroke:#000000;}#mermaid-0 .marker.cross{stroke:#000000;}#mermaid-0 svg{font-family:"trebuchet ms",verdana,arial,sans-serif;font-size:16px;}#mermaid-0 .entityBox{fill:#cde498;stroke:#13540c;}#mermaid-0 .attributeBoxOdd{fill:#ffffff;stroke:#13540c;}#mermaid-0 .attributeBoxEven{fill:#f2f2f2;stroke:#13540c;}#mermaid-0 .relationshipLabelBox{fill:hsl(78.1578947368, 58.4615384615%, 84.5098039216%);opacity:0.7;background-color:hsl(78.1578947368, 58.4615384615%, 84.5098039216%);}#mermaid-0 .relationshipLabelBox rect{opacity:0.5;}#mermaid-0 .relationshipLine{stroke:#000000;}#mermaid-0 .entityTitleText{text-anchor:middle;font-size:18px;fill:#000000;}#mermaid-0 :root{--mermaid-font-family:"trebuchet ms",verdana,arial,sans-serif;}</style><g/><defs><marker orient="auto" markerHeight="18" markerWidth="18" refY="9" refX="0" id="ONLY_ONE_START"><path d="M9,0 L9,18 M15,0 L15,18" fill="none" stroke="gray"/></marker></defs><defs><marker orient="auto" markerHeight="18" markerWidth="18" refY="9" refX="18" id="ONLY_ONE_END"><path d="M3,0 L3,18 M9,0 L9,18" fill="none" stroke="gray"/></marker></defs><defs><marker orient="auto" markerHeight="18" markerWidth="30" refY="9" refX="0" id="ZERO_OR_ONE_START"><circle r="6" cy="9" cx="21" fill="white" stroke="gray"/><path d="M9,0 L9,18" fill="none" stroke="gray"/></marker></defs><defs><marker orient="auto" markerHeight="18" markerWidth="30" refY="9" refX="30" id="ZERO_OR_ONE_END"><circle r="6" cy="9" cx="9" fill="white" stroke="gray"/><path d="M21,0 L21,18" fill="none" stroke="gray"/></marker></defs><defs><marker orient="auto" markerHeight="36" markerWidth="45" refY="18" refX="18" id="ONE_OR_MORE_START"><path d="M0,18 Q 18,0 36,18 Q 18,36 0,18 M42,9 L42,27" fill="none" stroke="gray"/></marker></defs><defs><marker orient="auto" markerHeight="36" markerWidth="45" refY="18" refX="27" id="ONE_OR_MORE_END"><path d="M3,9 L3,27 M9,18 Q27,0 45,18 Q27,36 9,18" fill="none" stroke="gray"/></marker></defs><defs><marker orient="auto" markerHeight="36" markerWidth="57" refY="18" refX="18" id="ZERO_OR_MORE_START"><circle r="6" cy="18" cx="48" fill="white" stroke="gray"/><path d="M0,18 Q18,0 36,18 Q18,36 0,18" fill="none" stroke="gray"/></marker></defs><defs><marker orient="auto" markerHeight="36" markerWidth="57" refY="18" refX="39" id="ZERO_OR_MORE_END"><circle r="6" cy="18" cx="9" fill="white" stroke="gray"/><path d="M21,18 Q39,0 57,18 Q39,36 21,18" fill="none" stroke="gray"/></marker></defs><path style="stroke: gray; fill: none;" marker-start="url(#ZERO_OR_MORE_START)" marker-end="url(#ONLY_ONE_END)" d="M83.96571350097656,644L83.96571350097656,652.3333333333334C83.96571350097656,660.6666666666666,83.96571350097656,677.3333333333334,108.40060043334961,698.507801943285C132.83548736572266,719.6822705532369,181.70526123046875,745.3645411064739,206.1401481628418,758.2056763830923L230.57503509521484,771.0468116597107" class="er relationshipLine"/><path style="stroke: gray; fill: none;" marker-start="url(#ZERO_OR_MORE_START)" marker-end="url(#ONLY_ONE_END)" d="M306.6003723144531,589L306.6003723144531,606.5C306.6003723144531,624,306.6003723144531,659,306.6003723144531,684.8333333333334C306.6003723144531,710.6666666666666,306.6003723144531,727.3333333333334,306.6003723144531,735.6666666666666L306.6003723144531,744" class="er relationshipLine"/><path style="stroke: gray; fill: none;" marker-start="url(#ZERO_OR_MORE_START)" marker-end="url(#ONLY_ONE_END)" d="M515.2693176269531,600L515.2693176269531,615.6666666666666C515.2693176269531,631.3333333333334,515.2693176269531,662.6666666666666,493.1620496114095,690.728806717957C471.0547815958659,718.7909467692475,426.8402455647786,743.581893538495,404.73297754923504,755.9773669231187L382.6257095336914,768.3728403077425" class="er relationshipLine"/><path style="stroke: gray; fill: none;" marker-start="url(#ZERO_OR_MORE_START)" marker-end="url(#ONLY_ONE_END)" d="M406.48719024658203,344L406.48719024658203,356C406.48719024658203,368,406.48719024658203,392,418.74800556283486,419.6666666666667C431.00882087908775,447.3333333333333,455.5304515115934,478.6666666666667,467.7912668278463,494.3333333333333L480.0520821440992,510" class="er relationshipLine"/><path style="stroke: gray; fill: none;" marker-start="url(#ZERO_OR_MORE_START)" marker-end="url(#ONLY_ONE_END)" d="M624.0514450073242,355L624.0514450073242,365.1666666666667C624.0514450073242,375.3333333333333,624.0514450073242,395.6666666666667,611.7906296910713,421.5C599.5298143748186,447.3333333333333,575.0081837423128,478.6666666666667,562.74736842606,494.3333333333333L550.4865531098071,510" class="er relationshipLine"/><path style="stroke: gray; fill: none;" marker-start="url(#ZERO_OR_MORE_START)" marker-end="url(#ONLY_ONE_END)" d="M759.672469245063,110L774.849107671667,125.66666666666667C790.0257460982712,141.33333333333334,820.3790229514793,172.66666666666666,835.5556613780833,196.66666666666666C850.7322998046875,220.66666666666666,850.7322998046875,237.33333333333334,850.7322998046875,245.66666666666666L850.7322998046875,254" class="er relationshipLine"/><path style="stroke: gray; fill: none;" marker-start="url(#ZERO_OR_MORE_START)" marker-end="url(#ONLY_ONE_END)" d="M715.1112755669487,110L699.9346371403448,125.66666666666667C684.7579987137406,141.33333333333334,654.4047218605324,172.66666666666666,639.2280834339283,198.5C624.0514450073242,224.33333333333334,624.0514450073242,244.66666666666666,624.0514450073242,254.83333333333334L624.0514450073242,265" class="er relationshipLine"/><path style="stroke: gray; fill: none;" marker-start="url(#ZERO_OR_MORE_START)" marker-end="url(#ONLY_ONE_END)" d="M850.7322998046875,366L850.7322998046875,374.3333333333333C850.7322998046875,382.6666666666667,850.7322998046875,399.3333333333333,850.7322998046875,425.1666666666667C850.7322998046875,451,850.7322998046875,486,850.7322998046875,503.5L850.7322998046875,521" class="er relationshipLine"/><path style="stroke: gray; fill: none;" marker-start="url(#ZERO_OR_MORE_START)" marker-end="url(#ONLY_ONE_END)" d="M1069.7875595092773,154L1069.7875595092773,162.33333333333334C1069.7875595092773,170.66666666666666,1069.7875595092773,187.33333333333334,1069.7875595092773,207.66666666666666C1069.7875595092773,228,1069.7875595092773,252,1069.7875595092773,264L1069.7875595092773,276" class="er relationshipLine"/><g transform="translate(230.57503509521484,744 )" id="entity-company-051a7680-f833-49db-bbeb-d57ce7fdb33c"><rect height="134" width="152.05067443847656" y="0" x="0" class="er entityBox"/><text style="dominant-baseline: middle; text-anchor: middle; font-size: 12px;" transform="translate(76.02533721923828,12)" y="0" x="0" id="text-entity-company-051a7680-f833-49db-bbeb-d57ce7fdb33c" class="er entityLabel">company</text><rect height="22" width="37.39605712890625" y="24" x="0" class="er attributeBoxOdd"/><text style="dominant-baseline: middle; font-size: 10.2px;" transform="translate(5,35)" y="0" x="0" id="text-entity-company-051a7680-f833-49db-bbeb-d57ce7fdb33c-attr-1-type" class="er entityLabel">Int</text><rect height="22" width="91.96693420410156" y="24" x="37.39605712890625" class="er attributeBoxOdd"/><text style="dominant-baseline: middle; font-size: 10.2px;" transform="translate(42.39605712890625,35)" y="0" x="0" id="text-entity-company-051a7680-f833-49db-bbeb-d57ce7fdb33c-attr-1-name" class="er entityLabel">id</text><rect height="22" width="22.68768310546875" y="24" x="129.3629913330078" class="er attributeBoxOdd"/><text style="dominant-baseline: middle; font-size: 10.2px;" transform="translate(134.3629913330078,35)" y="0" x="0" id="text-entity-company-051a7680-f833-49db-bbeb-d57ce7fdb33c-attr-1-key" class="er entityLabel">PK</text><rect height="22" width="37.39605712890625" y="46" x="0" class="er attributeBoxEven"/><text style="dominant-baseline: middle; font-size: 10.2px;" transform="translate(5,57)" y="0" x="0" id="text-entity-company-051a7680-f833-49db-bbeb-d57ce7fdb33c-attr-2-type" class="er entityLabel">String</text><rect height="22" width="91.96693420410156" y="46" x="37.39605712890625" class="er attributeBoxEven"/><text style="dominant-baseline: middle; font-size: 10.2px;" transform="translate(42.39605712890625,57)" y="0" x="0" id="text-entity-company-051a7680-f833-49db-bbeb-d57ce7fdb33c-attr-2-name" class="er entityLabel">name</text><rect height="22" width="22.68768310546875" y="46" x="129.3629913330078" class="er attributeBoxEven"/><text style="dominant-baseline: middle; font-size: 10.2px;" transform="translate(134.3629913330078,57)" y="0" x="0" id="text-entity-company-051a7680-f833-49db-bbeb-d57ce7fdb33c-attr-2-key" class="er entityLabel"/><rect height="22" width="37.39605712890625" y="68" x="0" class="er attributeBoxOdd"/><text style="dominant-baseline: middle; font-size: 10.2px;" transform="translate(5,79)" y="0" x="0" id="text-entity-company-051a7680-f833-49db-bbeb-d57ce7fdb33c-attr-3-type" class="er entityLabel">String</text><rect height="22" width="91.96693420410156" y="68" x="37.39605712890625" class="er attributeBoxOdd"/><text style="dominant-baseline: middle; font-size: 10.2px;" transform="translate(42.39605712890625,79)" y="0" x="0" id="text-entity-company-051a7680-f833-49db-bbeb-d57ce7fdb33c-attr-3-name" class="er entityLabel">cnpj</text><rect height="22" width="22.68768310546875" y="68" x="129.3629913330078" class="er attributeBoxOdd"/><text style="dominant-baseline: middle; font-size: 10.2px;" transform="translate(134.3629913330078,79)" y="0" x="0" id="text-entity-company-051a7680-f833-49db-bbeb-d57ce7fdb33c-attr-3-key" class="er entityLabel"/><rect height="22" width="37.39605712890625" y="90" x="0" class="er attributeBoxEven"/><text style="dominant-baseline: middle; font-size: 10.2px;" transform="translate(5,101)" y="0" x="0" id="text-entity-company-051a7680-f833-49db-bbeb-d57ce7fdb33c-attr-4-type" class="er entityLabel">String</text><rect height="22" width="91.96693420410156" y="90" x="37.39605712890625" class="er attributeBoxEven"/><text style="dominant-baseline: middle; font-size: 10.2px;" transform="translate(42.39605712890625,101)" y="0" x="0" id="text-entity-company-051a7680-f833-49db-bbeb-d57ce7fdb33c-attr-4-name" class="er entityLabel">email</text><rect height="22" width="22.68768310546875" y="90" x="129.3629913330078" class="er attributeBoxEven"/><text style="dominant-baseline: middle; font-size: 10.2px;" transform="translate(134.3629913330078,101)" y="0" x="0" id="text-entity-company-051a7680-f833-49db-bbeb-d57ce7fdb33c-attr-4-key" class="er entityLabel"/><rect height="22" width="37.39605712890625" y="112" x="0" class="er attributeBoxOdd"/><text style="dominant-baseline: middle; font-size: 10.2px;" transform="translate(5,123)" y="0" x="0" id="text-entity-company-051a7680-f833-49db-bbeb-d57ce7fdb33c-attr-5-type" class="er entityLabel">String</text><rect height="22" width="91.96693420410156" y="112" x="37.39605712890625" class="er attributeBoxOdd"/><text style="dominant-baseline: middle; font-size: 10.2px;" transform="translate(42.39605712890625,123)" y="0" x="0" id="text-entity-company-051a7680-f833-49db-bbeb-d57ce7fdb33c-attr-5-name" class="er entityLabel">state_registration</text><rect height="22" width="22.68768310546875" y="112" x="129.3629913330078" class="er attributeBoxOdd"/><text style="dominant-baseline: middle; font-size: 10.2px;" transform="translate(134.3629913330078,123)" y="0" x="0" id="text-entity-company-051a7680-f833-49db-bbeb-d57ce7fdb33c-attr-5-key" class="er entityLabel"/></g><g transform="translate(20,466 )" id="entity-companyaddress-83c0855e-41aa-4dd3-95ce-e2dcec20a0cd"><rect height="178" width="127.93142700195312" y="0" x="0" class="er entityBox"/><text style="dominant-baseline: middle; text-anchor: middle; font-size: 12px;" transform="translate(63.96571350097656,12)" y="0" x="0" id="text-entity-companyaddress-83c0855e-41aa-4dd3-95ce-e2dcec20a0cd" class="er entityLabel">company_address</text><rect height="22" width="37.39605712890625" y="24" x="0" class="er attributeBoxOdd"/><text style="dominant-baseline: middle; font-size: 10.2px;" transform="translate(5,35)" y="0" x="0" id="text-entity-companyaddress-83c0855e-41aa-4dd3-95ce-e2dcec20a0cd-attr-1-type" class="er entityLabel">Int</text><rect height="22" width="67.84768676757812" y="24" x="37.39605712890625" class="er attributeBoxOdd"/><text style="dominant-baseline: middle; font-size: 10.2px;" transform="translate(42.39605712890625,35)" y="0" x="0" id="text-entity-companyaddress-83c0855e-41aa-4dd3-95ce-e2dcec20a0cd-attr-1-name" class="er entityLabel">id</text><rect height="22" width="22.68768310546875" y="24" x="105.24374389648438" class="er attributeBoxOdd"/><text style="dominant-baseline: middle; font-size: 10.2px;" transform="translate(110.24374389648438,35)" y="0" x="0" id="text-entity-companyaddress-83c0855e-41aa-4dd3-95ce-e2dcec20a0cd-attr-1-key" class="er entityLabel">PK</text><rect height="22" width="37.39605712890625" y="46" x="0" class="er attributeBoxEven"/><text style="dominant-baseline: middle; font-size: 10.2px;" transform="translate(5,57)" y="0" x="0" id="text-entity-companyaddress-83c0855e-41aa-4dd3-95ce-e2dcec20a0cd-attr-2-type" class="er entityLabel">String</text><rect height="22" width="67.84768676757812" y="46" x="37.39605712890625" class="er attributeBoxEven"/><text style="dominant-baseline: middle; font-size: 10.2px;" transform="translate(42.39605712890625,57)" y="0" x="0" id="text-entity-companyaddress-83c0855e-41aa-4dd3-95ce-e2dcec20a0cd-attr-2-name" class="er entityLabel">cep</text><rect height="22" width="22.68768310546875" y="46" x="105.24374389648438" class="er attributeBoxEven"/><text style="dominant-baseline: middle; font-size: 10.2px;" transform="translate(110.24374389648438,57)" y="0" x="0" id="text-entity-companyaddress-83c0855e-41aa-4dd3-95ce-e2dcec20a0cd-attr-2-key" class="er entityLabel"/><rect height="22" width="37.39605712890625" y="68" x="0" class="er attributeBoxOdd"/><text style="dominant-baseline: middle; font-size: 10.2px;" transform="translate(5,79)" y="0" x="0" id="text-entity-companyaddress-83c0855e-41aa-4dd3-95ce-e2dcec20a0cd-attr-3-type" class="er entityLabel">String</text><rect height="22" width="67.84768676757812" y="68" x="37.39605712890625" class="er attributeBoxOdd"/><text style="dominant-baseline: middle; font-size: 10.2px;" transform="translate(42.39605712890625,79)" y="0" x="0" id="text-entity-companyaddress-83c0855e-41aa-4dd3-95ce-e2dcec20a0cd-attr-3-name" class="er entityLabel">city</text><rect height="22" width="22.68768310546875" y="68" x="105.24374389648438" class="er attributeBoxOdd"/><text style="dominant-baseline: middle; font-size: 10.2px;" transform="translate(110.24374389648438,79)" y="0" x="0" id="text-entity-companyaddress-83c0855e-41aa-4dd3-95ce-e2dcec20a0cd-attr-3-key" class="er entityLabel"/><rect height="22" width="37.39605712890625" y="90" x="0" class="er attributeBoxEven"/><text style="dominant-baseline: middle; font-size: 10.2px;" transform="translate(5,101)" y="0" x="0" id="text-entity-companyaddress-83c0855e-41aa-4dd3-95ce-e2dcec20a0cd-attr-4-type" class="er entityLabel">String</text><rect height="22" width="67.84768676757812" y="90" x="37.39605712890625" class="er attributeBoxEven"/><text style="dominant-baseline: middle; font-size: 10.2px;" transform="translate(42.39605712890625,101)" y="0" x="0" id="text-entity-companyaddress-83c0855e-41aa-4dd3-95ce-e2dcec20a0cd-attr-4-name" class="er entityLabel">state</text><rect height="22" width="22.68768310546875" y="90" x="105.24374389648438" class="er attributeBoxEven"/><text style="dominant-baseline: middle; font-size: 10.2px;" transform="translate(110.24374389648438,101)" y="0" x="0" id="text-entity-companyaddress-83c0855e-41aa-4dd3-95ce-e2dcec20a0cd-attr-4-key" class="er entityLabel"/><rect height="22" width="37.39605712890625" y="112" x="0" class="er attributeBoxOdd"/><text style="dominant-baseline: middle; font-size: 10.2px;" transform="translate(5,123)" y="0" x="0" id="text-entity-companyaddress-83c0855e-41aa-4dd3-95ce-e2dcec20a0cd-attr-5-type" class="er entityLabel">String</text><rect height="22" width="67.84768676757812" y="112" x="37.39605712890625" class="er attributeBoxOdd"/><text style="dominant-baseline: middle; font-size: 10.2px;" transform="translate(42.39605712890625,123)" y="0" x="0" id="text-entity-companyaddress-83c0855e-41aa-4dd3-95ce-e2dcec20a0cd-attr-5-name" class="er entityLabel">street</text><rect height="22" width="22.68768310546875" y="112" x="105.24374389648438" class="er attributeBoxOdd"/><text style="dominant-baseline: middle; font-size: 10.2px;" transform="translate(110.24374389648438,123)" y="0" x="0" id="text-entity-companyaddress-83c0855e-41aa-4dd3-95ce-e2dcec20a0cd-attr-5-key" class="er entityLabel"/><rect height="22" width="37.39605712890625" y="134" x="0" class="er attributeBoxEven"/><text style="dominant-baseline: middle; font-size: 10.2px;" transform="translate(5,145)" y="0" x="0" id="text-entity-companyaddress-83c0855e-41aa-4dd3-95ce-e2dcec20a0cd-attr-6-type" class="er entityLabel">Int</text><rect height="22" width="67.84768676757812" y="134" x="37.39605712890625" class="er attributeBoxEven"/><text style="dominant-baseline: middle; font-size: 10.2px;" transform="translate(42.39605712890625,145)" y="0" x="0" id="text-entity-companyaddress-83c0855e-41aa-4dd3-95ce-e2dcec20a0cd-attr-6-name" class="er entityLabel">number</text><rect height="22" width="22.68768310546875" y="134" x="105.24374389648438" class="er attributeBoxEven"/><text style="dominant-baseline: middle; font-size: 10.2px;" transform="translate(110.24374389648438,145)" y="0" x="0" id="text-entity-companyaddress-83c0855e-41aa-4dd3-95ce-e2dcec20a0cd-attr-6-key" class="er entityLabel"/><rect height="22" width="37.39605712890625" y="156" x="0" class="er attributeBoxOdd"/><text style="dominant-baseline: middle; font-size: 10.2px;" transform="translate(5,167)" y="0" x="0" id="text-entity-companyaddress-83c0855e-41aa-4dd3-95ce-e2dcec20a0cd-attr-7-type" class="er entityLabel">String</text><rect height="22" width="67.84768676757812" y="156" x="37.39605712890625" class="er attributeBoxOdd"/><text style="dominant-baseline: middle; font-size: 10.2px;" transform="translate(42.39605712890625,167)" y="0" x="0" id="text-entity-companyaddress-83c0855e-41aa-4dd3-95ce-e2dcec20a0cd-attr-7-name" class="er entityLabel">complement</text><rect height="22" width="22.68768310546875" y="156" x="105.24374389648438" class="er attributeBoxOdd"/><text style="dominant-baseline: middle; font-size: 10.2px;" transform="translate(110.24374389648438,167)" y="0" x="0" id="text-entity-companyaddress-83c0855e-41aa-4dd3-95ce-e2dcec20a0cd-attr-7-key" class="er entityLabel"/></g><g transform="translate(247.93142700195312,521 )" id="entity-companyphone-61e59ce4-3d1a-45f2-9ab8-66f64cb4533c"><rect height="68" width="117.337890625" y="0" x="0" class="er entityBox"/><text style="dominant-baseline: middle; text-anchor: middle; font-size: 12px;" transform="translate(58.6689453125,12)" y="0" x="0" id="text-entity-companyphone-61e59ce4-3d1a-45f2-9ab8-66f64cb4533c" class="er entityLabel">company_phone</text><rect height="22" width="43.71327209472656" y="24" x="0" class="er attributeBoxOdd"/><text style="dominant-baseline: middle; font-size: 10.2px;" transform="translate(5,35)" y="0" x="0" id="text-entity-companyphone-61e59ce4-3d1a-45f2-9ab8-66f64cb4533c-attr-1-type" class="er entityLabel">Int</text><rect height="22" width="44.619720458984375" y="24" x="43.71327209472656" class="er attributeBoxOdd"/><text style="dominant-baseline: middle; font-size: 10.2px;" transform="translate(48.71327209472656,35)" y="0" x="0" id="text-entity-companyphone-61e59ce4-3d1a-45f2-9ab8-66f64cb4533c-attr-1-name" class="er entityLabel">id</text><rect height="22" width="29.004898071289062" y="24" x="88.33299255371094" class="er attributeBoxOdd"/><text style="dominant-baseline: middle; font-size: 10.2px;" transform="translate(93.33299255371094,35)" y="0" x="0" id="text-entity-companyphone-61e59ce4-3d1a-45f2-9ab8-66f64cb4533c-attr-1-key" class="er entityLabel">PK</text><rect height="22" width="43.71327209472656" y="46" x="0" class="er attributeBoxEven"/><text style="dominant-baseline: middle; font-size: 10.2px;" transform="translate(5,57)" y="0" x="0" id="text-entity-companyphone-61e59ce4-3d1a-45f2-9ab8-66f64cb4533c-attr-2-type" class="er entityLabel">String</text><rect height="22" width="44.619720458984375" y="46" x="43.71327209472656" class="er attributeBoxEven"/><text style="dominant-baseline: middle; font-size: 10.2px;" transform="translate(48.71327209472656,57)" y="0" x="0" id="text-entity-companyphone-61e59ce4-3d1a-45f2-9ab8-66f64cb4533c-attr-2-name" class="er entityLabel">phone</text><rect height="22" width="29.004898071289062" y="46" x="88.33299255371094" class="er attributeBoxEven"/><text style="dominant-baseline: middle; font-size: 10.2px;" transform="translate(93.33299255371094,57)" y="0" x="0" id="text-entity-companyphone-61e59ce4-3d1a-45f2-9ab8-66f64cb4533c-attr-2-key" class="er entityLabel"/></g><g transform="translate(465.2693176269531,510 )" id="entity-suppliers-db0f2ae6-046f-4c92-870c-d9c3bd7ebca1"><rect height="90" width="100" y="0" x="0" class="er entityBox"/><text style="dominant-baseline: middle; text-anchor: middle; font-size: 12px;" transform="translate(50,12)" y="0" x="0" id="text-entity-suppliers-db0f2ae6-046f-4c92-870c-d9c3bd7ebca1" class="er entityLabel">suppliers</text><rect height="22" width="38.90184020996094" y="24" x="0" class="er attributeBoxOdd"/><text style="dominant-baseline: middle; font-size: 10.2px;" transform="translate(5,35)" y="0" x="0" id="text-entity-suppliers-db0f2ae6-046f-4c92-870c-d9c3bd7ebca1-attr-1-type" class="er entityLabel">Int</text><rect height="22" width="36.904693603515625" y="24" x="38.90184020996094" class="er attributeBoxOdd"/><text style="dominant-baseline: middle; font-size: 10.2px;" transform="translate(43.90184020996094,35)" y="0" x="0" id="text-entity-suppliers-db0f2ae6-046f-4c92-870c-d9c3bd7ebca1-attr-1-name" class="er entityLabel">id</text><rect height="22" width="24.193466186523438" y="24" x="75.80653381347656" class="er attributeBoxOdd"/><text style="dominant-baseline: middle; font-size: 10.2px;" transform="translate(80.80653381347656,35)" y="0" x="0" id="text-entity-suppliers-db0f2ae6-046f-4c92-870c-d9c3bd7ebca1-attr-1-key" class="er entityLabel">PK</text><rect height="22" width="38.90184020996094" y="46" x="0" class="er attributeBoxEven"/><text style="dominant-baseline: middle; font-size: 10.2px;" transform="translate(5,57)" y="0" x="0" id="text-entity-suppliers-db0f2ae6-046f-4c92-870c-d9c3bd7ebca1-attr-2-type" class="er entityLabel">String</text><rect height="22" width="36.904693603515625" y="46" x="38.90184020996094" class="er attributeBoxEven"/><text style="dominant-baseline: middle; font-size: 10.2px;" transform="translate(43.90184020996094,57)" y="0" x="0" id="text-entity-suppliers-db0f2ae6-046f-4c92-870c-d9c3bd7ebca1-attr-2-name" class="er entityLabel">name</text><rect height="22" width="24.193466186523438" y="46" x="75.80653381347656" class="er attributeBoxEven"/><text style="dominant-baseline: middle; font-size: 10.2px;" transform="translate(80.80653381347656,57)" y="0" x="0" id="text-entity-suppliers-db0f2ae6-046f-4c92-870c-d9c3bd7ebca1-attr-2-key" class="er entityLabel"/><rect height="22" width="38.90184020996094" y="68" x="0" class="er attributeBoxOdd"/><text style="dominant-baseline: middle; font-size: 10.2px;" transform="translate(5,79)" y="0" x="0" id="text-entity-suppliers-db0f2ae6-046f-4c92-870c-d9c3bd7ebca1-attr-3-type" class="er entityLabel">String</text><rect height="22" width="36.904693603515625" y="68" x="38.90184020996094" class="er attributeBoxOdd"/><text style="dominant-baseline: middle; font-size: 10.2px;" transform="translate(43.90184020996094,79)" y="0" x="0" id="text-entity-suppliers-db0f2ae6-046f-4c92-870c-d9c3bd7ebca1-attr-3-name" class="er entityLabel">email</text><rect height="22" width="24.193466186523438" y="68" x="75.80653381347656" class="er attributeBoxOdd"/><text style="dominant-baseline: middle; font-size: 10.2px;" transform="translate(80.80653381347656,79)" y="0" x="0" id="text-entity-suppliers-db0f2ae6-046f-4c92-870c-d9c3bd7ebca1-attr-3-key" class="er entityLabel"/></g><g transform="translate(350.24402618408203,276 )" id="entity-supplierphone-b1fed18b-ebb2-40b5-924e-4a869bfde09a"><rect height="68" width="112.486328125" y="0" x="0" class="er entityBox"/><text style="dominant-baseline: middle; text-anchor: middle; font-size: 12px;" transform="translate(56.2431640625,12)" y="0" x="0" id="text-entity-supplierphone-b1fed18b-ebb2-40b5-924e-4a869bfde09a" class="er entityLabel">supplier_phone</text><rect height="22" width="42.09608459472656" y="24" x="0" class="er attributeBoxOdd"/><text style="dominant-baseline: middle; font-size: 10.2px;" transform="translate(5,35)" y="0" x="0" id="text-entity-supplierphone-b1fed18b-ebb2-40b5-924e-4a869bfde09a-attr-1-type" class="er entityLabel">Int</text><rect height="22" width="43.002532958984375" y="24" x="42.09608459472656" class="er attributeBoxOdd"/><text style="dominant-baseline: middle; font-size: 10.2px;" transform="translate(47.09608459472656,35)" y="0" x="0" id="text-entity-supplierphone-b1fed18b-ebb2-40b5-924e-4a869bfde09a-attr-1-name" class="er entityLabel">id</text><rect height="22" width="27.387710571289062" y="24" x="85.09861755371094" class="er attributeBoxOdd"/><text style="dominant-baseline: middle; font-size: 10.2px;" transform="translate(90.09861755371094,35)" y="0" x="0" id="text-entity-supplierphone-b1fed18b-ebb2-40b5-924e-4a869bfde09a-attr-1-key" class="er entityLabel">PK</text><rect height="22" width="42.09608459472656" y="46" x="0" class="er attributeBoxEven"/><text style="dominant-baseline: middle; font-size: 10.2px;" transform="translate(5,57)" y="0" x="0" id="text-entity-supplierphone-b1fed18b-ebb2-40b5-924e-4a869bfde09a-attr-2-type" class="er entityLabel">String</text><rect height="22" width="43.002532958984375" y="46" x="42.09608459472656" class="er attributeBoxEven"/><text style="dominant-baseline: middle; font-size: 10.2px;" transform="translate(47.09608459472656,57)" y="0" x="0" id="text-entity-supplierphone-b1fed18b-ebb2-40b5-924e-4a869bfde09a-attr-2-name" class="er entityLabel">phone</text><rect height="22" width="27.387710571289062" y="46" x="85.09861755371094" class="er attributeBoxEven"/><text style="dominant-baseline: middle; font-size: 10.2px;" transform="translate(90.09861755371094,57)" y="0" x="0" id="text-entity-supplierphone-b1fed18b-ebb2-40b5-924e-4a869bfde09a-attr-2-key" class="er entityLabel"/></g><g transform="translate(562.730354309082,265 )" id="entity-batch-ceb5dfb9-2bf9-45a9-a276-11c28d232002"><rect height="90" width="122.64218139648438" y="0" x="0" class="er entityBox"/><text style="dominant-baseline: middle; text-anchor: middle; font-size: 12px;" transform="translate(61.32109069824219,12)" y="0" x="0" id="text-entity-batch-ceb5dfb9-2bf9-45a9-a276-11c28d232002" class="er entityLabel">batch</text><rect height="22" width="54.095550537109375" y="24" x="0" class="er attributeBoxOdd"/><text style="dominant-baseline: middle; font-size: 10.2px;" transform="translate(5,35)" y="0" x="0" id="text-entity-batch-ceb5dfb9-2bf9-45a9-a276-11c28d232002-attr-1-type" class="er entityLabel">Int</text><rect height="22" width="45.85894775390625" y="24" x="54.095550537109375" class="er attributeBoxOdd"/><text style="dominant-baseline: middle; font-size: 10.2px;" transform="translate(59.095550537109375,35)" y="0" x="0" id="text-entity-batch-ceb5dfb9-2bf9-45a9-a276-11c28d232002-attr-1-name" class="er entityLabel">id</text><rect height="22" width="22.68768310546875" y="24" x="99.95449829101562" class="er attributeBoxOdd"/><text style="dominant-baseline: middle; font-size: 10.2px;" transform="translate(104.95449829101562,35)" y="0" x="0" id="text-entity-batch-ceb5dfb9-2bf9-45a9-a276-11c28d232002-attr-1-key" class="er entityLabel">PK</text><rect height="22" width="54.095550537109375" y="46" x="0" class="er attributeBoxEven"/><text style="dominant-baseline: middle; font-size: 10.2px;" transform="translate(5,57)" y="0" x="0" id="text-entity-batch-ceb5dfb9-2bf9-45a9-a276-11c28d232002-attr-2-type" class="er entityLabel">String</text><rect height="22" width="45.85894775390625" y="46" x="54.095550537109375" class="er attributeBoxEven"/><text style="dominant-baseline: middle; font-size: 10.2px;" transform="translate(59.095550537109375,57)" y="0" x="0" id="text-entity-batch-ceb5dfb9-2bf9-45a9-a276-11c28d232002-attr-2-name" class="er entityLabel">number</text><rect height="22" width="22.68768310546875" y="46" x="99.95449829101562" class="er attributeBoxEven"/><text style="dominant-baseline: middle; font-size: 10.2px;" transform="translate(104.95449829101562,57)" y="0" x="0" id="text-entity-batch-ceb5dfb9-2bf9-45a9-a276-11c28d232002-attr-2-key" class="er entityLabel"/><rect height="22" width="54.095550537109375" y="68" x="0" class="er attributeBoxOdd"/><text style="dominant-baseline: middle; font-size: 10.2px;" transform="translate(5,79)" y="0" x="0" id="text-entity-batch-ceb5dfb9-2bf9-45a9-a276-11c28d232002-attr-3-type" class="er entityLabel">DateTime</text><rect height="22" width="45.85894775390625" y="68" x="54.095550537109375" class="er attributeBoxOdd"/><text style="dominant-baseline: middle; font-size: 10.2px;" transform="translate(59.095550537109375,79)" y="0" x="0" id="text-entity-batch-ceb5dfb9-2bf9-45a9-a276-11c28d232002-attr-3-name" class="er entityLabel">date</text><rect height="22" width="22.68768310546875" y="68" x="99.95449829101562" class="er attributeBoxOdd"/><text style="dominant-baseline: middle; font-size: 10.2px;" transform="translate(104.95449829101562,79)" y="0" x="0" id="text-entity-batch-ceb5dfb9-2bf9-45a9-a276-11c28d232002-attr-3-key" class="er entityLabel"/></g><g transform="translate(683.1360130310059,64 )" id="entity-batchproduct-0cc2c2d5-68bb-4fa1-aa3c-df3ff4c9ad12"><rect height="46" width="108.51171875" y="0" x="0" class="er entityBox"/><text style="dominant-baseline: middle; text-anchor: middle; font-size: 12px;" transform="translate(54.255859375,12)" y="0" x="0" id="text-entity-batchproduct-0cc2c2d5-68bb-4fa1-aa3c-df3ff4c9ad12" class="er entityLabel">batch_product</text><rect height="22" width="41.36946105957031" y="24" x="0" class="er attributeBoxOdd"/><text style="dominant-baseline: middle; font-size: 10.2px;" transform="translate(5,35)" y="0" x="0" id="text-entity-batchproduct-0cc2c2d5-68bb-4fa1-aa3c-df3ff4c9ad12-attr-1-type" class="er entityLabel">Int</text><rect height="22" width="67.14225769042969" y="24" x="41.36946105957031" class="er attributeBoxOdd"/><text style="dominant-baseline: middle; font-size: 10.2px;" transform="translate(46.36946105957031,35)" y="0" x="0" id="text-entity-batchproduct-0cc2c2d5-68bb-4fa1-aa3c-df3ff4c9ad12-attr-1-name" class="er entityLabel">quantity</text></g><g transform="translate(785.3725357055664,254 )" id="entity-products-45d4b757-e7fc-436b-9961-1dfe8729d537"><rect height="112" width="130.7195281982422" y="0" x="0" class="er entityBox"/><text style="dominant-baseline: middle; text-anchor: middle; font-size: 12px;" transform="translate(65.3597640991211,12)" y="0" x="0" id="text-entity-products-45d4b757-e7fc-436b-9961-1dfe8729d537" class="er entityLabel">products</text><rect height="22" width="46.625" y="24" x="0" class="er attributeBoxOdd"/><text style="dominant-baseline: middle; font-size: 10.2px;" transform="translate(5,35)" y="0" x="0" id="text-entity-products-45d4b757-e7fc-436b-9961-1dfe8729d537-attr-1-type" class="er entityLabel">Int</text><rect height="22" width="61.40684509277344" y="24" x="46.625" class="er attributeBoxOdd"/><text style="dominant-baseline: middle; font-size: 10.2px;" transform="translate(51.625,35)" y="0" x="0" id="text-entity-products-45d4b757-e7fc-436b-9961-1dfe8729d537-attr-1-name" class="er entityLabel">id</text><rect height="22" width="22.68768310546875" y="24" x="108.03184509277344" class="er attributeBoxOdd"/><text style="dominant-baseline: middle; font-size: 10.2px;" transform="translate(113.03184509277344,35)" y="0" x="0" id="text-entity-products-45d4b757-e7fc-436b-9961-1dfe8729d537-attr-1-key" class="er entityLabel">PK</text><rect height="22" width="46.625" y="46" x="0" class="er attributeBoxEven"/><text style="dominant-baseline: middle; font-size: 10.2px;" transform="translate(5,57)" y="0" x="0" id="text-entity-products-45d4b757-e7fc-436b-9961-1dfe8729d537-attr-2-type" class="er entityLabel">String</text><rect height="22" width="61.40684509277344" y="46" x="46.625" class="er attributeBoxEven"/><text style="dominant-baseline: middle; font-size: 10.2px;" transform="translate(51.625,57)" y="0" x="0" id="text-entity-products-45d4b757-e7fc-436b-9961-1dfe8729d537-attr-2-name" class="er entityLabel">description</text><rect height="22" width="22.68768310546875" y="46" x="108.03184509277344" class="er attributeBoxEven"/><text style="dominant-baseline: middle; font-size: 10.2px;" transform="translate(113.03184509277344,57)" y="0" x="0" id="text-entity-products-45d4b757-e7fc-436b-9961-1dfe8729d537-attr-2-key" class="er entityLabel"/><rect height="22" width="46.625" y="68" x="0" class="er attributeBoxOdd"/><text style="dominant-baseline: middle; font-size: 10.2px;" transform="translate(5,79)" y="0" x="0" id="text-entity-products-45d4b757-e7fc-436b-9961-1dfe8729d537-attr-3-type" class="er entityLabel">String</text><rect height="22" width="61.40684509277344" y="68" x="46.625" class="er attributeBoxOdd"/><text style="dominant-baseline: middle; font-size: 10.2px;" transform="translate(51.625,79)" y="0" x="0" id="text-entity-products-45d4b757-e7fc-436b-9961-1dfe8729d537-attr-3-name" class="er entityLabel">ncmSh</text><rect height="22" width="22.68768310546875" y="68" x="108.03184509277344" class="er attributeBoxOdd"/><text style="dominant-baseline: middle; font-size: 10.2px;" transform="translate(113.03184509277344,79)" y="0" x="0" id="text-entity-products-45d4b757-e7fc-436b-9961-1dfe8729d537-attr-3-key" class="er entityLabel"/><rect height="22" width="46.625" y="90" x="0" class="er attributeBoxEven"/><text style="dominant-baseline: middle; font-size: 10.2px;" transform="translate(5,101)" y="0" x="0" id="text-entity-products-45d4b757-e7fc-436b-9961-1dfe8729d537-attr-4-type" class="er entityLabel">Decimal</text><rect height="22" width="61.40684509277344" y="90" x="46.625" class="er attributeBoxEven"/><text style="dominant-baseline: middle; font-size: 10.2px;" transform="translate(51.625,101)" y="0" x="0" id="text-entity-products-45d4b757-e7fc-436b-9961-1dfe8729d537-attr-4-name" class="er entityLabel">price</text><rect height="22" width="22.68768310546875" y="90" x="108.03184509277344" class="er attributeBoxEven"/><text style="dominant-baseline: middle; font-size: 10.2px;" transform="translate(113.03184509277344,101)" y="0" x="0" id="text-entity-products-45d4b757-e7fc-436b-9961-1dfe8729d537-attr-4-key" class="er entityLabel"/></g><g transform="translate(800.7322998046875,521 )" id="entity-categories-f64b7c2d-b1c4-44c8-9957-3195fb662523"><rect height="68" width="100" y="0" x="0" class="er entityBox"/><text style="dominant-baseline: middle; text-anchor: middle; font-size: 12px;" transform="translate(50,12)" y="0" x="0" id="text-entity-categories-f64b7c2d-b1c4-44c8-9957-3195fb662523" class="er entityLabel">categories</text><rect height="22" width="38.90184020996094" y="24" x="0" class="er attributeBoxOdd"/><text style="dominant-baseline: middle; font-size: 10.2px;" transform="translate(5,35)" y="0" x="0" id="text-entity-categories-f64b7c2d-b1c4-44c8-9957-3195fb662523-attr-1-type" class="er entityLabel">Int</text><rect height="22" width="36.904693603515625" y="24" x="38.90184020996094" class="er attributeBoxOdd"/><text style="dominant-baseline: middle; font-size: 10.2px;" transform="translate(43.90184020996094,35)" y="0" x="0" id="text-entity-categories-f64b7c2d-b1c4-44c8-9957-3195fb662523-attr-1-name" class="er entityLabel">id</text><rect height="22" width="24.193466186523438" y="24" x="75.80653381347656" class="er attributeBoxOdd"/><text style="dominant-baseline: middle; font-size: 10.2px;" transform="translate(80.80653381347656,35)" y="0" x="0" id="text-entity-categories-f64b7c2d-b1c4-44c8-9957-3195fb662523-attr-1-key" class="er entityLabel">PK</text><rect height="22" width="38.90184020996094" y="46" x="0" class="er attributeBoxEven"/><text style="dominant-baseline: middle; font-size: 10.2px;" transform="translate(5,57)" y="0" x="0" id="text-entity-categories-f64b7c2d-b1c4-44c8-9957-3195fb662523-attr-2-type" class="er entityLabel">String</text><rect height="22" width="36.904693603515625" y="46" x="38.90184020996094" class="er attributeBoxEven"/><text style="dominant-baseline: middle; font-size: 10.2px;" transform="translate(43.90184020996094,57)" y="0" x="0" id="text-entity-categories-f64b7c2d-b1c4-44c8-9957-3195fb662523-attr-2-name" class="er entityLabel">name</text><rect height="22" width="24.193466186523438" y="46" x="75.80653381347656" class="er attributeBoxEven"/><text style="dominant-baseline: middle; font-size: 10.2px;" transform="translate(80.80653381347656,57)" y="0" x="0" id="text-entity-categories-f64b7c2d-b1c4-44c8-9957-3195fb662523-attr-2-key" class="er entityLabel"/></g><g transform="translate(1019.7875595092773,276 )" id="entity-usertypes-cd051bc5-44d3-4dbb-af3f-eab5027358bc"><rect height="68" width="100" y="0" x="0" class="er entityBox"/><text style="dominant-baseline: middle; text-anchor: middle; font-size: 12px;" transform="translate(50,12)" y="0" x="0" id="text-entity-usertypes-cd051bc5-44d3-4dbb-af3f-eab5027358bc" class="er entityLabel">user_types</text><rect height="22" width="38.90184020996094" y="24" x="0" class="er attributeBoxOdd"/><text style="dominant-baseline: middle; font-size: 10.2px;" transform="translate(5,35)" y="0" x="0" id="text-entity-usertypes-cd051bc5-44d3-4dbb-af3f-eab5027358bc-attr-1-type" class="er entityLabel">Int</text><rect height="22" width="36.904693603515625" y="24" x="38.90184020996094" class="er attributeBoxOdd"/><text style="dominant-baseline: middle; font-size: 10.2px;" transform="translate(43.90184020996094,35)" y="0" x="0" id="text-entity-usertypes-cd051bc5-44d3-4dbb-af3f-eab5027358bc-attr-1-name" class="er entityLabel">id</text><rect height="22" width="24.193466186523438" y="24" x="75.80653381347656" class="er attributeBoxOdd"/><text style="dominant-baseline: middle; font-size: 10.2px;" transform="translate(80.80653381347656,35)" y="0" x="0" id="text-entity-usertypes-cd051bc5-44d3-4dbb-af3f-eab5027358bc-attr-1-key" class="er entityLabel">PK</text><rect height="22" width="38.90184020996094" y="46" x="0" class="er attributeBoxEven"/><text style="dominant-baseline: middle; font-size: 10.2px;" transform="translate(5,57)" y="0" x="0" id="text-entity-usertypes-cd051bc5-44d3-4dbb-af3f-eab5027358bc-attr-2-type" class="er entityLabel">String</text><rect height="22" width="36.904693603515625" y="46" x="38.90184020996094" class="er attributeBoxEven"/><text style="dominant-baseline: middle; font-size: 10.2px;" transform="translate(43.90184020996094,57)" y="0" x="0" id="text-entity-usertypes-cd051bc5-44d3-4dbb-af3f-eab5027358bc-attr-2-name" class="er entityLabel">name</text><rect height="22" width="24.193466186523438" y="46" x="75.80653381347656" class="er attributeBoxEven"/><text style="dominant-baseline: middle; font-size: 10.2px;" transform="translate(80.80653381347656,57)" y="0" x="0" id="text-entity-usertypes-cd051bc5-44d3-4dbb-af3f-eab5027358bc-attr-2-key" class="er entityLabel"/></g><g transform="translate(1001.2926635742188,20 )" id="entity-users-d58f03e1-8f5b-4222-9509-920b0f35dbc6"><rect height="134" width="136.9897918701172" y="0" x="0" class="er entityBox"/><text style="dominant-baseline: middle; text-anchor: middle; font-size: 12px;" transform="translate(68.4948959350586,12)" y="0" x="0" id="text-entity-users-d58f03e1-8f5b-4222-9509-920b0f35dbc6" class="er entityLabel">users</text><rect height="22" width="37.39605712890625" y="24" x="0" class="er attributeBoxOdd"/><text style="dominant-baseline: middle; font-size: 10.2px;" transform="translate(5,35)" y="0" x="0" id="text-entity-users-d58f03e1-8f5b-4222-9509-920b0f35dbc6-attr-1-type" class="er entityLabel">Int</text><rect height="22" width="76.90605163574219" y="24" x="37.39605712890625" class="er attributeBoxOdd"/><text style="dominant-baseline: middle; font-size: 10.2px;" transform="translate(42.39605712890625,35)" y="0" x="0" id="text-entity-users-d58f03e1-8f5b-4222-9509-920b0f35dbc6-attr-1-name" class="er entityLabel">id</text><rect height="22" width="22.68768310546875" y="24" x="114.30210876464844" class="er attributeBoxOdd"/><text style="dominant-baseline: middle; font-size: 10.2px;" transform="translate(119.30210876464844,35)" y="0" x="0" id="text-entity-users-d58f03e1-8f5b-4222-9509-920b0f35dbc6-attr-1-key" class="er entityLabel">PK</text><rect height="22" width="37.39605712890625" y="46" x="0" class="er attributeBoxEven"/><text style="dominant-baseline: middle; font-size: 10.2px;" transform="translate(5,57)" y="0" x="0" id="text-entity-users-d58f03e1-8f5b-4222-9509-920b0f35dbc6-attr-2-type" class="er entityLabel">String</text><rect height="22" width="76.90605163574219" y="46" x="37.39605712890625" class="er attributeBoxEven"/><text style="dominant-baseline: middle; font-size: 10.2px;" transform="translate(42.39605712890625,57)" y="0" x="0" id="text-entity-users-d58f03e1-8f5b-4222-9509-920b0f35dbc6-attr-2-name" class="er entityLabel">name</text><rect height="22" width="22.68768310546875" y="46" x="114.30210876464844" class="er attributeBoxEven"/><text style="dominant-baseline: middle; font-size: 10.2px;" transform="translate(119.30210876464844,57)" y="0" x="0" id="text-entity-users-d58f03e1-8f5b-4222-9509-920b0f35dbc6-attr-2-key" class="er entityLabel"/><rect height="22" width="37.39605712890625" y="68" x="0" class="er attributeBoxOdd"/><text style="dominant-baseline: middle; font-size: 10.2px;" transform="translate(5,79)" y="0" x="0" id="text-entity-users-d58f03e1-8f5b-4222-9509-920b0f35dbc6-attr-3-type" class="er entityLabel">String</text><rect height="22" width="76.90605163574219" y="68" x="37.39605712890625" class="er attributeBoxOdd"/><text style="dominant-baseline: middle; font-size: 10.2px;" transform="translate(42.39605712890625,79)" y="0" x="0" id="text-entity-users-d58f03e1-8f5b-4222-9509-920b0f35dbc6-attr-3-name" class="er entityLabel">user_login</text><rect height="22" width="22.68768310546875" y="68" x="114.30210876464844" class="er attributeBoxOdd"/><text style="dominant-baseline: middle; font-size: 10.2px;" transform="translate(119.30210876464844,79)" y="0" x="0" id="text-entity-users-d58f03e1-8f5b-4222-9509-920b0f35dbc6-attr-3-key" class="er entityLabel"/><rect height="22" width="37.39605712890625" y="90" x="0" class="er attributeBoxEven"/><text style="dominant-baseline: middle; font-size: 10.2px;" transform="translate(5,101)" y="0" x="0" id="text-entity-users-d58f03e1-8f5b-4222-9509-920b0f35dbc6-attr-4-type" class="er entityLabel">String</text><rect height="22" width="76.90605163574219" y="90" x="37.39605712890625" class="er attributeBoxEven"/><text style="dominant-baseline: middle; font-size: 10.2px;" transform="translate(42.39605712890625,101)" y="0" x="0" id="text-entity-users-d58f03e1-8f5b-4222-9509-920b0f35dbc6-attr-4-name" class="er entityLabel">user_password</text><rect height="22" width="22.68768310546875" y="90" x="114.30210876464844" class="er attributeBoxEven"/><text style="dominant-baseline: middle; font-size: 10.2px;" transform="translate(119.30210876464844,101)" y="0" x="0" id="text-entity-users-d58f03e1-8f5b-4222-9509-920b0f35dbc6-attr-4-key" class="er entityLabel"/><rect height="22" width="37.39605712890625" y="112" x="0" class="er attributeBoxOdd"/><text style="dominant-baseline: middle; font-size: 10.2px;" transform="translate(5,123)" y="0" x="0" id="text-entity-users-d58f03e1-8f5b-4222-9509-920b0f35dbc6-attr-5-type" class="er entityLabel">String</text><rect height="22" width="76.90605163574219" y="112" x="37.39605712890625" class="er attributeBoxOdd"/><text style="dominant-baseline: middle; font-size: 10.2px;" transform="translate(42.39605712890625,123)" y="0" x="0" id="text-entity-users-d58f03e1-8f5b-4222-9509-920b0f35dbc6-attr-5-name" class="er entityLabel">email</text><rect height="22" width="22.68768310546875" y="112" x="114.30210876464844" class="er attributeBoxOdd"/><text style="dominant-baseline: middle; font-size: 10.2px;" transform="translate(119.30210876464844,123)" y="0" x="0" id="text-entity-users-d58f03e1-8f5b-4222-9509-920b0f35dbc6-attr-5-key" class="er entityLabel"/></g><rect height="14" width="81.935546875" y="714.6312866210938" x="99.93963623046875" class="er relationshipLabelBox"/><text style="text-anchor: middle; dominant-baseline: middle; font-size: 12px;" y="721.6312866210938" x="140.90740966796875" id="rel1" class="er relationshipLabel">company_id_fk</text><rect height="14" width="134.48828125" y="659.5" x="239.35623168945312" class="er relationshipLabelBox"/><text style="text-anchor: middle; dominant-baseline: middle; font-size: 12px;" y="666.5" x="306.6003723144531" id="rel2" class="er relationshipLabel">company_cnpj_phone_fk</text><rect height="14" width="81.935546875" y="698.443115234375" x="438.43841552734375" class="er relationshipLabelBox"/><text style="text-anchor: middle; dominant-baseline: middle; font-size: 12px;" y="705.443115234375" x="479.40618896484375" id="rel3" class="er relationshipLabel">company_id_fk</text><rect height="14" width="116.16015625" y="426.99688720703125" x="367.86224365234375" class="er relationshipLabelBox"/><text style="text-anchor: middle; dominant-baseline: middle; font-size: 12px;" y="433.99688720703125" x="425.94232177734375" id="rel4" class="er relationshipLabel">supplier_phone_id_fk</text><rect height="14" width="77.083984375" y="431.84368896484375" x="563.8056640625" class="er relationshipLabelBox"/><text style="text-anchor: middle; dominant-baseline: middle; font-size: 12px;" y="438.84368896484375" x="602.34765625" id="rel5" class="er relationshipLabel">supplier_id_fk</text><rect height="14" width="75.859375" y="167.5351104736328" x="781.3630981445312" class="er relationshipLabelBox"/><text style="text-anchor: middle; dominant-baseline: middle; font-size: 12px;" y="174.5351104736328" x="819.2927856445312" id="rel6" class="er relationshipLabel">product_id_fk</text><rect height="14" width="95.236328125" y="171.88755798339844" x="605.0101928710938" class="er relationshipLabelBox"/><text style="text-anchor: middle; dominant-baseline: middle; font-size: 12px;" y="178.88755798339844" x="652.6283569335938" id="rel7" class="er relationshipLabel">number_batch_fk</text><rect height="14" width="80.72265625" y="436.5" x="810.3709716796875" class="er relationshipLabelBox"/><text style="text-anchor: middle; dominant-baseline: middle; font-size: 12px;" y="443.5" x="850.7322998046875" id="rel8" class="er relationshipLabel">id_category_fk</text><rect height="14" width="86.951171875" y="208" x="1026.31201171875" class="er relationshipLabelBox"/><text style="text-anchor: middle; dominant-baseline: middle; font-size: 12px;" y="215" x="1069.78759765625" id="rel9" class="er relationshipLabel">user_type_id_fk</text></svg>