<svg aria-roledescription="er" viewBox="0 0 930.3510131835938 1088" style="max-width: 930.351px; background-color: white;" xmlns:xlink="http://www.w3.org/1999/xlink" xmlns="http://www.w3.org/2000/svg" width="100%" id="mermaid-0"><style>#mermaid-0{font-family:"trebuchet ms",verdana,arial,sans-serif;font-size:16px;fill:#000000;}#mermaid-0 .error-icon{fill:#552222;}#mermaid-0 .error-text{fill:#552222;stroke:#552222;}#mermaid-0 .edge-thickness-normal{stroke-width:2px;}#mermaid-0 .edge-thickness-thick{stroke-width:3.5px;}#mermaid-0 .edge-pattern-solid{stroke-dasharray:0;}#mermaid-0 .edge-pattern-dashed{stroke-dasharray:3;}#mermaid-0 .edge-pattern-dotted{stroke-dasharray:2;}#mermaid-0 .marker{fill:#000000;stroke:#000000;}#mermaid-0 .marker.cross{stroke:#000000;}#mermaid-0 svg{font-family:"trebuchet ms",verdana,arial,sans-serif;font-size:16px;}#mermaid-0 .entityBox{fill:#cde498;stroke:#13540c;}#mermaid-0 .attributeBoxOdd{fill:#ffffff;stroke:#13540c;}#mermaid-0 .attributeBoxEven{fill:#f2f2f2;stroke:#13540c;}#mermaid-0 .relationshipLabelBox{fill:hsl(78.1578947368, 58.4615384615%, 84.5098039216%);opacity:0.7;background-color:hsl(78.1578947368, 58.4615384615%, 84.5098039216%);}#mermaid-0 .relationshipLabelBox rect{opacity:0.5;}#mermaid-0 .relationshipLine{stroke:#000000;}#mermaid-0 .entityTitleText{text-anchor:middle;font-size:18px;fill:#000000;}#mermaid-0 :root{--mermaid-font-family:"trebuchet ms",verdana,arial,sans-serif;}</style><g/><defs><marker orient="auto" markerHeight="18" markerWidth="18" refY="9" refX="0" id="ONLY_ONE_START"><path d="M9,0 L9,18 M15,0 L15,18" fill="none" stroke="gray"/></marker></defs><defs><marker orient="auto" markerHeight="18" markerWidth="18" refY="9" refX="18" id="ONLY_ONE_END"><path d="M3,0 L3,18 M9,0 L9,18" fill="none" stroke="gray"/></marker></defs><defs><marker orient="auto" markerHeight="18" markerWidth="30" refY="9" refX="0" id="ZERO_OR_ONE_START"><circle r="6" cy="9" cx="21" fill="white" stroke="gray"/><path d="M9,0 L9,18" fill="none" stroke="gray"/></marker></defs><defs><marker orient="auto" markerHeight="18" markerWidth="30" refY="9" refX="30" id="ZERO_OR_ONE_END"><circle r="6" cy="9" cx="9" fill="white" stroke="gray"/><path d="M21,0 L21,18" fill="none" stroke="gray"/></marker></defs><defs><marker orient="auto" markerHeight="36" markerWidth="45" refY="18" refX="18" id="ONE_OR_MORE_START"><path d="M0,18 Q 18,0 36,18 Q 18,36 0,18 M42,9 L42,27" fill="none" stroke="gray"/></marker></defs><defs><marker orient="auto" markerHeight="36" markerWidth="45" refY="18" refX="27" id="ONE_OR_MORE_END"><path d="M3,9 L3,27 M9,18 Q27,0 45,18 Q27,36 9,18" fill="none" stroke="gray"/></marker></defs><defs><marker orient="auto" markerHeight="36" markerWidth="57" refY="18" refX="18" id="ZERO_OR_MORE_START"><circle r="6" cy="18" cx="48" fill="white" stroke="gray"/><path d="M0,18 Q18,0 36,18 Q18,36 0,18" fill="none" stroke="gray"/></marker></defs><defs><marker orient="auto" markerHeight="36" markerWidth="57" refY="18" refX="39" id="ZERO_OR_MORE_END"><circle r="6" cy="18" cx="9" fill="white" stroke="gray"/><path d="M21,18 Q39,0 57,18 Q39,36 21,18" fill="none" stroke="gray"/></marker></defs><path style="stroke: gray; fill: none;" marker-start="url(#ZERO_OR_MORE_START)" marker-end="url(#ONLY_ONE_END)" d="M183.00341796875,768L183.00341796875,776.3333333333334C183.00341796875,784.6666666666666,183.00341796875,801.3333333333334,183.00341796875,818C183.00341796875,834.6666666666666,183.00341796875,851.3333333333334,183.00341796875,859.6666666666666L183.00341796875,868" class="er relationshipLine"/><path style="stroke: gray; fill: none;" marker-start="url(#ZERO_OR_MORE_START)" marker-end="url(#ONLY_ONE_END)" d="M78.6689453125,545L78.6689453125,555.1666666666666C78.6689453125,565.3333333333334,78.6689453125,585.6666666666666,86.87134096157627,604.1666666666666C95.07373661065252,622.6666666666666,111.47852790880502,639.3333333333334,119.68092355788129,647.6666666666666L127.88331920695754,656" class="er relationshipLine"/><path style="stroke: gray; fill: none;" marker-start="url(#ZERO_OR_MORE_START)" marker-end="url(#ONLY_ONE_END)" d="M287.337890625,556L287.337890625,564.3333333333334C287.337890625,572.6666666666666,287.337890625,589.3333333333334,279.13549497592373,606C270.93309932684747,622.6666666666666,254.52830802869497,639.3333333333334,246.3259123796187,647.6666666666666L238.12351673054246,656" class="er relationshipLine"/><path style="stroke: gray; fill: none;" marker-start="url(#ZERO_OR_MORE_START)" marker-end="url(#ONLY_ONE_END)" d="M178.5557632446289,344L178.5557632446289,356C178.5557632446289,368,178.5557632446289,392,188.35278447469076,412.55578980912463C198.1498057047526,433.1115796182492,217.7438481648763,450.2231592364985,227.54086939493814,458.77894904562305L237.337890625,467.33473885474774" class="er relationshipLine"/><path style="stroke: gray; fill: none;" marker-start="url(#ZERO_OR_MORE_START)" marker-end="url(#ONLY_ONE_END)" d="M396.1200180053711,355L396.1200180053711,365.1666666666667C396.1200180053711,375.3333333333333,396.1200180053711,395.6666666666667,386.32299677530926,414.38912314245795C376.5259755452474,433.1115796182492,356.9319330851237,450.2231592364985,347.13491185506183,458.77894904562305L337.337890625,467.33473885474774" class="er relationshipLine"/><path style="stroke: gray; fill: none;" marker-start="url(#ZERO_OR_MORE_START)" marker-end="url(#ONLY_ONE_END)" d="M531.7410422431099,110L546.917680669714,125.66666666666667C562.094319096318,141.33333333333334,592.4475959495262,172.66666666666666,607.6242343761303,196.66666666666666C622.8008728027344,220.66666666666666,622.8008728027344,237.33333333333334,622.8008728027344,245.66666666666666L622.8008728027344,254" class="er relationshipLine"/><path style="stroke: gray; fill: none;" marker-start="url(#ZERO_OR_MORE_START)" marker-end="url(#ONLY_ONE_END)" d="M487.17984856499567,110L472.0032101383916,125.66666666666667C456.82657171178744,141.33333333333334,426.47329485857927,172.66666666666666,411.2966564319752,198.5C396.1200180053711,224.33333333333334,396.1200180053711,244.66666666666666,396.1200180053711,254.83333333333334L396.1200180053711,265" class="er relationshipLine"/><path style="stroke: gray; fill: none;" marker-start="url(#ZERO_OR_MORE_START)" marker-end="url(#ONLY_ONE_END)" d="M622.8008728027344,366L622.8008728027344,374.3333333333333C622.8008728027344,382.6666666666667,622.8008728027344,399.3333333333333,622.8008728027344,417.8333333333333C622.8008728027344,436.3333333333333,622.8008728027344,456.6666666666667,622.8008728027344,466.8333333333333L622.8008728027344,477" class="er relationshipLine"/><path style="stroke: gray; fill: none;" marker-start="url(#ZERO_OR_MORE_START)" marker-end="url(#ONLY_ONE_END)" d="M841.8561325073242,154L841.8561325073242,162.33333333333334C841.8561325073242,170.66666666666666,841.8561325073242,187.33333333333334,841.8561325073242,207.66666666666666C841.8561325073242,228,841.8561325073242,252,841.8561325073242,264L841.8561325073242,276" class="er relationshipLine"/><g transform="translate(106.97808074951172,656 )" id="entity-company-cf663d92-4d7f-4040-aa51-f01291a4adae"><rect height="112" width="152.05067443847656" y="0" x="0" class="er entityBox"/><text style="dominant-baseline: middle; text-anchor: middle; font-size: 12px;" transform="translate(76.02533721923828,12)" y="0" x="0" id="text-entity-company-cf663d92-4d7f-4040-aa51-f01291a4adae" class="er entityLabel">company</text><rect height="22" width="37.39605712890625" y="24" x="0" class="er attributeBoxOdd"/><text style="dominant-baseline: middle; font-size: 10.2px;" transform="translate(5,35)" y="0" x="0" id="text-entity-company-cf663d92-4d7f-4040-aa51-f01291a4adae-attr-1-type" class="er entityLabel">Int</text><rect height="22" width="91.96693420410156" y="24" x="37.39605712890625" class="er attributeBoxOdd"/><text style="dominant-baseline: middle; font-size: 10.2px;" transform="translate(42.39605712890625,35)" y="0" x="0" id="text-entity-company-cf663d92-4d7f-4040-aa51-f01291a4adae-attr-1-name" class="er entityLabel">id</text><rect height="22" width="22.68768310546875" y="24" x="129.3629913330078" class="er attributeBoxOdd"/><text style="dominant-baseline: middle; font-size: 10.2px;" transform="translate(134.3629913330078,35)" y="0" x="0" id="text-entity-company-cf663d92-4d7f-4040-aa51-f01291a4adae-attr-1-key" class="er entityLabel">PK</text><rect height="22" width="37.39605712890625" y="46" x="0" class="er attributeBoxEven"/><text style="dominant-baseline: middle; font-size: 10.2px;" transform="translate(5,57)" y="0" x="0" id="text-entity-company-cf663d92-4d7f-4040-aa51-f01291a4adae-attr-2-type" class="er entityLabel">String</text><rect height="22" width="91.96693420410156" y="46" x="37.39605712890625" class="er attributeBoxEven"/><text style="dominant-baseline: middle; font-size: 10.2px;" transform="translate(42.39605712890625,57)" y="0" x="0" id="text-entity-company-cf663d92-4d7f-4040-aa51-f01291a4adae-attr-2-name" class="er entityLabel">cnpj</text><rect height="22" width="22.68768310546875" y="46" x="129.3629913330078" class="er attributeBoxEven"/><text style="dominant-baseline: middle; font-size: 10.2px;" transform="translate(134.3629913330078,57)" y="0" x="0" id="text-entity-company-cf663d92-4d7f-4040-aa51-f01291a4adae-attr-2-key" class="er entityLabel"/><rect height="22" width="37.39605712890625" y="68" x="0" class="er attributeBoxOdd"/><text style="dominant-baseline: middle; font-size: 10.2px;" transform="translate(5,79)" y="0" x="0" id="text-entity-company-cf663d92-4d7f-4040-aa51-f01291a4adae-attr-3-type" class="er entityLabel">String</text><rect height="22" width="91.96693420410156" y="68" x="37.39605712890625" class="er attributeBoxOdd"/><text style="dominant-baseline: middle; font-size: 10.2px;" transform="translate(42.39605712890625,79)" y="0" x="0" id="text-entity-company-cf663d92-4d7f-4040-aa51-f01291a4adae-attr-3-name" class="er entityLabel">email</text><rect height="22" width="22.68768310546875" y="68" x="129.3629913330078" class="er attributeBoxOdd"/><text style="dominant-baseline: middle; font-size: 10.2px;" transform="translate(134.3629913330078,79)" y="0" x="0" id="text-entity-company-cf663d92-4d7f-4040-aa51-f01291a4adae-attr-3-key" class="er entityLabel"/><rect height="22" width="37.39605712890625" y="90" x="0" class="er attributeBoxEven"/><text style="dominant-baseline: middle; font-size: 10.2px;" transform="translate(5,101)" y="0" x="0" id="text-entity-company-cf663d92-4d7f-4040-aa51-f01291a4adae-attr-4-type" class="er entityLabel">String</text><rect height="22" width="91.96693420410156" y="90" x="37.39605712890625" class="er attributeBoxEven"/><text style="dominant-baseline: middle; font-size: 10.2px;" transform="translate(42.39605712890625,101)" y="0" x="0" id="text-entity-company-cf663d92-4d7f-4040-aa51-f01291a4adae-attr-4-name" class="er entityLabel">state_registration</text><rect height="22" width="22.68768310546875" y="90" x="129.3629913330078" class="er attributeBoxEven"/><text style="dominant-baseline: middle; font-size: 10.2px;" transform="translate(134.3629913330078,101)" y="0" x="0" id="text-entity-company-cf663d92-4d7f-4040-aa51-f01291a4adae-attr-4-key" class="er entityLabel"/></g><g transform="translate(119.03770446777344,868 )" id="entity-companyaddress-4a249523-4cab-46f2-8ad3-82896aa406df"><rect height="200" width="127.93142700195312" y="0" x="0" class="er entityBox"/><text style="dominant-baseline: middle; text-anchor: middle; font-size: 12px;" transform="translate(63.96571350097656,12)" y="0" x="0" id="text-entity-companyaddress-4a249523-4cab-46f2-8ad3-82896aa406df" class="er entityLabel">company_address</text><rect height="22" width="37.39605712890625" y="24" x="0" class="er attributeBoxOdd"/><text style="dominant-baseline: middle; font-size: 10.2px;" transform="translate(5,35)" y="0" x="0" id="text-entity-companyaddress-4a249523-4cab-46f2-8ad3-82896aa406df-attr-1-type" class="er entityLabel">Int</text><rect height="22" width="67.84768676757812" y="24" x="37.39605712890625" class="er attributeBoxOdd"/><text style="dominant-baseline: middle; font-size: 10.2px;" transform="translate(42.39605712890625,35)" y="0" x="0" id="text-entity-companyaddress-4a249523-4cab-46f2-8ad3-82896aa406df-attr-1-name" class="er entityLabel">id</text><rect height="22" width="22.68768310546875" y="24" x="105.24374389648438" class="er attributeBoxOdd"/><text style="dominant-baseline: middle; font-size: 10.2px;" transform="translate(110.24374389648438,35)" y="0" x="0" id="text-entity-companyaddress-4a249523-4cab-46f2-8ad3-82896aa406df-attr-1-key" class="er entityLabel">PK</text><rect height="22" width="37.39605712890625" y="46" x="0" class="er attributeBoxEven"/><text style="dominant-baseline: middle; font-size: 10.2px;" transform="translate(5,57)" y="0" x="0" id="text-entity-companyaddress-4a249523-4cab-46f2-8ad3-82896aa406df-attr-2-type" class="er entityLabel">Int</text><rect height="22" width="67.84768676757812" y="46" x="37.39605712890625" class="er attributeBoxEven"/><text style="dominant-baseline: middle; font-size: 10.2px;" transform="translate(42.39605712890625,57)" y="0" x="0" id="text-entity-companyaddress-4a249523-4cab-46f2-8ad3-82896aa406df-attr-2-name" class="er entityLabel">company_id</text><rect height="22" width="22.68768310546875" y="46" x="105.24374389648438" class="er attributeBoxEven"/><text style="dominant-baseline: middle; font-size: 10.2px;" transform="translate(110.24374389648438,57)" y="0" x="0" id="text-entity-companyaddress-4a249523-4cab-46f2-8ad3-82896aa406df-attr-2-key" class="er entityLabel"/><rect height="22" width="37.39605712890625" y="68" x="0" class="er attributeBoxOdd"/><text style="dominant-baseline: middle; font-size: 10.2px;" transform="translate(5,79)" y="0" x="0" id="text-entity-companyaddress-4a249523-4cab-46f2-8ad3-82896aa406df-attr-3-type" class="er entityLabel">String</text><rect height="22" width="67.84768676757812" y="68" x="37.39605712890625" class="er attributeBoxOdd"/><text style="dominant-baseline: middle; font-size: 10.2px;" transform="translate(42.39605712890625,79)" y="0" x="0" id="text-entity-companyaddress-4a249523-4cab-46f2-8ad3-82896aa406df-attr-3-name" class="er entityLabel">cep</text><rect height="22" width="22.68768310546875" y="68" x="105.24374389648438" class="er attributeBoxOdd"/><text style="dominant-baseline: middle; font-size: 10.2px;" transform="translate(110.24374389648438,79)" y="0" x="0" id="text-entity-companyaddress-4a249523-4cab-46f2-8ad3-82896aa406df-attr-3-key" class="er entityLabel"/><rect height="22" width="37.39605712890625" y="90" x="0" class="er attributeBoxEven"/><text style="dominant-baseline: middle; font-size: 10.2px;" transform="translate(5,101)" y="0" x="0" id="text-entity-companyaddress-4a249523-4cab-46f2-8ad3-82896aa406df-attr-4-type" class="er entityLabel">String</text><rect height="22" width="67.84768676757812" y="90" x="37.39605712890625" class="er attributeBoxEven"/><text style="dominant-baseline: middle; font-size: 10.2px;" transform="translate(42.39605712890625,101)" y="0" x="0" id="text-entity-companyaddress-4a249523-4cab-46f2-8ad3-82896aa406df-attr-4-name" class="er entityLabel">city</text><rect height="22" width="22.68768310546875" y="90" x="105.24374389648438" class="er attributeBoxEven"/><text style="dominant-baseline: middle; font-size: 10.2px;" transform="translate(110.24374389648438,101)" y="0" x="0" id="text-entity-companyaddress-4a249523-4cab-46f2-8ad3-82896aa406df-attr-4-key" class="er entityLabel"/><rect height="22" width="37.39605712890625" y="112" x="0" class="er attributeBoxOdd"/><text style="dominant-baseline: middle; font-size: 10.2px;" transform="translate(5,123)" y="0" x="0" id="text-entity-companyaddress-4a249523-4cab-46f2-8ad3-82896aa406df-attr-5-type" class="er entityLabel">String</text><rect height="22" width="67.84768676757812" y="112" x="37.39605712890625" class="er attributeBoxOdd"/><text style="dominant-baseline: middle; font-size: 10.2px;" transform="translate(42.39605712890625,123)" y="0" x="0" id="text-entity-companyaddress-4a249523-4cab-46f2-8ad3-82896aa406df-attr-5-name" class="er entityLabel">state</text><rect height="22" width="22.68768310546875" y="112" x="105.24374389648438" class="er attributeBoxOdd"/><text style="dominant-baseline: middle; font-size: 10.2px;" transform="translate(110.24374389648438,123)" y="0" x="0" id="text-entity-companyaddress-4a249523-4cab-46f2-8ad3-82896aa406df-attr-5-key" class="er entityLabel"/><rect height="22" width="37.39605712890625" y="134" x="0" class="er attributeBoxEven"/><text style="dominant-baseline: middle; font-size: 10.2px;" transform="translate(5,145)" y="0" x="0" id="text-entity-companyaddress-4a249523-4cab-46f2-8ad3-82896aa406df-attr-6-type" class="er entityLabel">String</text><rect height="22" width="67.84768676757812" y="134" x="37.39605712890625" class="er attributeBoxEven"/><text style="dominant-baseline: middle; font-size: 10.2px;" transform="translate(42.39605712890625,145)" y="0" x="0" id="text-entity-companyaddress-4a249523-4cab-46f2-8ad3-82896aa406df-attr-6-name" class="er entityLabel">street</text><rect height="22" width="22.68768310546875" y="134" x="105.24374389648438" class="er attributeBoxEven"/><text style="dominant-baseline: middle; font-size: 10.2px;" transform="translate(110.24374389648438,145)" y="0" x="0" id="text-entity-companyaddress-4a249523-4cab-46f2-8ad3-82896aa406df-attr-6-key" class="er entityLabel"/><rect height="22" width="37.39605712890625" y="156" x="0" class="er attributeBoxOdd"/><text style="dominant-baseline: middle; font-size: 10.2px;" transform="translate(5,167)" y="0" x="0" id="text-entity-companyaddress-4a249523-4cab-46f2-8ad3-82896aa406df-attr-7-type" class="er entityLabel">Int</text><rect height="22" width="67.84768676757812" y="156" x="37.39605712890625" class="er attributeBoxOdd"/><text style="dominant-baseline: middle; font-size: 10.2px;" transform="translate(42.39605712890625,167)" y="0" x="0" id="text-entity-companyaddress-4a249523-4cab-46f2-8ad3-82896aa406df-attr-7-name" class="er entityLabel">number</text><rect height="22" width="22.68768310546875" y="156" x="105.24374389648438" class="er attributeBoxOdd"/><text style="dominant-baseline: middle; font-size: 10.2px;" transform="translate(110.24374389648438,167)" y="0" x="0" id="text-entity-companyaddress-4a249523-4cab-46f2-8ad3-82896aa406df-attr-7-key" class="er entityLabel"/><rect height="22" width="37.39605712890625" y="178" x="0" class="er attributeBoxEven"/><text style="dominant-baseline: middle; font-size: 10.2px;" transform="translate(5,189)" y="0" x="0" id="text-entity-companyaddress-4a249523-4cab-46f2-8ad3-82896aa406df-attr-8-type" class="er entityLabel">String</text><rect height="22" width="67.84768676757812" y="178" x="37.39605712890625" class="er attributeBoxEven"/><text style="dominant-baseline: middle; font-size: 10.2px;" transform="translate(42.39605712890625,189)" y="0" x="0" id="text-entity-companyaddress-4a249523-4cab-46f2-8ad3-82896aa406df-attr-8-name" class="er entityLabel">complement</text><rect height="22" width="22.68768310546875" y="178" x="105.24374389648438" class="er attributeBoxEven"/><text style="dominant-baseline: middle; font-size: 10.2px;" transform="translate(110.24374389648438,189)" y="0" x="0" id="text-entity-companyaddress-4a249523-4cab-46f2-8ad3-82896aa406df-attr-8-key" class="er entityLabel"/></g><g transform="translate(20,477 )" id="entity-companyphone-2fe2dab7-863a-47e0-bc52-fb7954c36174"><rect height="68" width="117.337890625" y="0" x="0" class="er entityBox"/><text style="dominant-baseline: middle; text-anchor: middle; font-size: 12px;" transform="translate(58.6689453125,12)" y="0" x="0" id="text-entity-companyphone-2fe2dab7-863a-47e0-bc52-fb7954c36174" class="er entityLabel">company_phone</text><rect height="22" width="43.71327209472656" y="24" x="0" class="er attributeBoxOdd"/><text style="dominant-baseline: middle; font-size: 10.2px;" transform="translate(5,35)" y="0" x="0" id="text-entity-companyphone-2fe2dab7-863a-47e0-bc52-fb7954c36174-attr-1-type" class="er entityLabel">Int</text><rect height="22" width="44.619720458984375" y="24" x="43.71327209472656" class="er attributeBoxOdd"/><text style="dominant-baseline: middle; font-size: 10.2px;" transform="translate(48.71327209472656,35)" y="0" x="0" id="text-entity-companyphone-2fe2dab7-863a-47e0-bc52-fb7954c36174-attr-1-name" class="er entityLabel">id</text><rect height="22" width="29.004898071289062" y="24" x="88.33299255371094" class="er attributeBoxOdd"/><text style="dominant-baseline: middle; font-size: 10.2px;" transform="translate(93.33299255371094,35)" y="0" x="0" id="text-entity-companyphone-2fe2dab7-863a-47e0-bc52-fb7954c36174-attr-1-key" class="er entityLabel">PK</text><rect height="22" width="43.71327209472656" y="46" x="0" class="er attributeBoxEven"/><text style="dominant-baseline: middle; font-size: 10.2px;" transform="translate(5,57)" y="0" x="0" id="text-entity-companyphone-2fe2dab7-863a-47e0-bc52-fb7954c36174-attr-2-type" class="er entityLabel">String</text><rect height="22" width="44.619720458984375" y="46" x="43.71327209472656" class="er attributeBoxEven"/><text style="dominant-baseline: middle; font-size: 10.2px;" transform="translate(48.71327209472656,57)" y="0" x="0" id="text-entity-companyphone-2fe2dab7-863a-47e0-bc52-fb7954c36174-attr-2-name" class="er entityLabel">phone</text><rect height="22" width="29.004898071289062" y="46" x="88.33299255371094" class="er attributeBoxEven"/><text style="dominant-baseline: middle; font-size: 10.2px;" transform="translate(93.33299255371094,57)" y="0" x="0" id="text-entity-companyphone-2fe2dab7-863a-47e0-bc52-fb7954c36174-attr-2-key" class="er entityLabel"/></g><g transform="translate(237.337890625,466 )" id="entity-suppliers-5b9a43c2-3031-413d-a0e4-ba5b82894562"><rect height="90" width="100" y="0" x="0" class="er entityBox"/><text style="dominant-baseline: middle; text-anchor: middle; font-size: 12px;" transform="translate(50,12)" y="0" x="0" id="text-entity-suppliers-5b9a43c2-3031-413d-a0e4-ba5b82894562" class="er entityLabel">suppliers</text><rect height="22" width="38.90184020996094" y="24" x="0" class="er attributeBoxOdd"/><text style="dominant-baseline: middle; font-size: 10.2px;" transform="translate(5,35)" y="0" x="0" id="text-entity-suppliers-5b9a43c2-3031-413d-a0e4-ba5b82894562-attr-1-type" class="er entityLabel">Int</text><rect height="22" width="36.904693603515625" y="24" x="38.90184020996094" class="er attributeBoxOdd"/><text style="dominant-baseline: middle; font-size: 10.2px;" transform="translate(43.90184020996094,35)" y="0" x="0" id="text-entity-suppliers-5b9a43c2-3031-413d-a0e4-ba5b82894562-attr-1-name" class="er entityLabel">id</text><rect height="22" width="24.193466186523438" y="24" x="75.80653381347656" class="er attributeBoxOdd"/><text style="dominant-baseline: middle; font-size: 10.2px;" transform="translate(80.80653381347656,35)" y="0" x="0" id="text-entity-suppliers-5b9a43c2-3031-413d-a0e4-ba5b82894562-attr-1-key" class="er entityLabel">PK</text><rect height="22" width="38.90184020996094" y="46" x="0" class="er attributeBoxEven"/><text style="dominant-baseline: middle; font-size: 10.2px;" transform="translate(5,57)" y="0" x="0" id="text-entity-suppliers-5b9a43c2-3031-413d-a0e4-ba5b82894562-attr-2-type" class="er entityLabel">String</text><rect height="22" width="36.904693603515625" y="46" x="38.90184020996094" class="er attributeBoxEven"/><text style="dominant-baseline: middle; font-size: 10.2px;" transform="translate(43.90184020996094,57)" y="0" x="0" id="text-entity-suppliers-5b9a43c2-3031-413d-a0e4-ba5b82894562-attr-2-name" class="er entityLabel">name</text><rect height="22" width="24.193466186523438" y="46" x="75.80653381347656" class="er attributeBoxEven"/><text style="dominant-baseline: middle; font-size: 10.2px;" transform="translate(80.80653381347656,57)" y="0" x="0" id="text-entity-suppliers-5b9a43c2-3031-413d-a0e4-ba5b82894562-attr-2-key" class="er entityLabel"/><rect height="22" width="38.90184020996094" y="68" x="0" class="er attributeBoxOdd"/><text style="dominant-baseline: middle; font-size: 10.2px;" transform="translate(5,79)" y="0" x="0" id="text-entity-suppliers-5b9a43c2-3031-413d-a0e4-ba5b82894562-attr-3-type" class="er entityLabel">String</text><rect height="22" width="36.904693603515625" y="68" x="38.90184020996094" class="er attributeBoxOdd"/><text style="dominant-baseline: middle; font-size: 10.2px;" transform="translate(43.90184020996094,79)" y="0" x="0" id="text-entity-suppliers-5b9a43c2-3031-413d-a0e4-ba5b82894562-attr-3-name" class="er entityLabel">email</text><rect height="22" width="24.193466186523438" y="68" x="75.80653381347656" class="er attributeBoxOdd"/><text style="dominant-baseline: middle; font-size: 10.2px;" transform="translate(80.80653381347656,79)" y="0" x="0" id="text-entity-suppliers-5b9a43c2-3031-413d-a0e4-ba5b82894562-attr-3-key" class="er entityLabel"/></g><g transform="translate(122.3125991821289,276 )" id="entity-supplierphone-30635721-a97f-4cb0-8fea-f065c0a29cc4"><rect height="68" width="112.486328125" y="0" x="0" class="er entityBox"/><text style="dominant-baseline: middle; text-anchor: middle; font-size: 12px;" transform="translate(56.2431640625,12)" y="0" x="0" id="text-entity-supplierphone-30635721-a97f-4cb0-8fea-f065c0a29cc4" class="er entityLabel">supplier_phone</text><rect height="22" width="42.09608459472656" y="24" x="0" class="er attributeBoxOdd"/><text style="dominant-baseline: middle; font-size: 10.2px;" transform="translate(5,35)" y="0" x="0" id="text-entity-supplierphone-30635721-a97f-4cb0-8fea-f065c0a29cc4-attr-1-type" class="er entityLabel">Int</text><rect height="22" width="43.002532958984375" y="24" x="42.09608459472656" class="er attributeBoxOdd"/><text style="dominant-baseline: middle; font-size: 10.2px;" transform="translate(47.09608459472656,35)" y="0" x="0" id="text-entity-supplierphone-30635721-a97f-4cb0-8fea-f065c0a29cc4-attr-1-name" class="er entityLabel">id</text><rect height="22" width="27.387710571289062" y="24" x="85.09861755371094" class="er attributeBoxOdd"/><text style="dominant-baseline: middle; font-size: 10.2px;" transform="translate(90.09861755371094,35)" y="0" x="0" id="text-entity-supplierphone-30635721-a97f-4cb0-8fea-f065c0a29cc4-attr-1-key" class="er entityLabel">PK</text><rect height="22" width="42.09608459472656" y="46" x="0" class="er attributeBoxEven"/><text style="dominant-baseline: middle; font-size: 10.2px;" transform="translate(5,57)" y="0" x="0" id="text-entity-supplierphone-30635721-a97f-4cb0-8fea-f065c0a29cc4-attr-2-type" class="er entityLabel">String</text><rect height="22" width="43.002532958984375" y="46" x="42.09608459472656" class="er attributeBoxEven"/><text style="dominant-baseline: middle; font-size: 10.2px;" transform="translate(47.09608459472656,57)" y="0" x="0" id="text-entity-supplierphone-30635721-a97f-4cb0-8fea-f065c0a29cc4-attr-2-name" class="er entityLabel">phone</text><rect height="22" width="27.387710571289062" y="46" x="85.09861755371094" class="er attributeBoxEven"/><text style="dominant-baseline: middle; font-size: 10.2px;" transform="translate(90.09861755371094,57)" y="0" x="0" id="text-entity-supplierphone-30635721-a97f-4cb0-8fea-f065c0a29cc4-attr-2-key" class="er entityLabel"/></g><g transform="translate(334.7989273071289,265 )" id="entity-batch-a4eff7fa-25d2-49e8-8f83-aa0b683a3179"><rect height="90" width="122.64218139648438" y="0" x="0" class="er entityBox"/><text style="dominant-baseline: middle; text-anchor: middle; font-size: 12px;" transform="translate(61.32109069824219,12)" y="0" x="0" id="text-entity-batch-a4eff7fa-25d2-49e8-8f83-aa0b683a3179" class="er entityLabel">batch</text><rect height="22" width="54.095550537109375" y="24" x="0" class="er attributeBoxOdd"/><text style="dominant-baseline: middle; font-size: 10.2px;" transform="translate(5,35)" y="0" x="0" id="text-entity-batch-a4eff7fa-25d2-49e8-8f83-aa0b683a3179-attr-1-type" class="er entityLabel">Int</text><rect height="22" width="45.85894775390625" y="24" x="54.095550537109375" class="er attributeBoxOdd"/><text style="dominant-baseline: middle; font-size: 10.2px;" transform="translate(59.095550537109375,35)" y="0" x="0" id="text-entity-batch-a4eff7fa-25d2-49e8-8f83-aa0b683a3179-attr-1-name" class="er entityLabel">id</text><rect height="22" width="22.68768310546875" y="24" x="99.95449829101562" class="er attributeBoxOdd"/><text style="dominant-baseline: middle; font-size: 10.2px;" transform="translate(104.95449829101562,35)" y="0" x="0" id="text-entity-batch-a4eff7fa-25d2-49e8-8f83-aa0b683a3179-attr-1-key" class="er entityLabel">PK</text><rect height="22" width="54.095550537109375" y="46" x="0" class="er attributeBoxEven"/><text style="dominant-baseline: middle; font-size: 10.2px;" transform="translate(5,57)" y="0" x="0" id="text-entity-batch-a4eff7fa-25d2-49e8-8f83-aa0b683a3179-attr-2-type" class="er entityLabel">String</text><rect height="22" width="45.85894775390625" y="46" x="54.095550537109375" class="er attributeBoxEven"/><text style="dominant-baseline: middle; font-size: 10.2px;" transform="translate(59.095550537109375,57)" y="0" x="0" id="text-entity-batch-a4eff7fa-25d2-49e8-8f83-aa0b683a3179-attr-2-name" class="er entityLabel">number</text><rect height="22" width="22.68768310546875" y="46" x="99.95449829101562" class="er attributeBoxEven"/><text style="dominant-baseline: middle; font-size: 10.2px;" transform="translate(104.95449829101562,57)" y="0" x="0" id="text-entity-batch-a4eff7fa-25d2-49e8-8f83-aa0b683a3179-attr-2-key" class="er entityLabel"/><rect height="22" width="54.095550537109375" y="68" x="0" class="er attributeBoxOdd"/><text style="dominant-baseline: middle; font-size: 10.2px;" transform="translate(5,79)" y="0" x="0" id="text-entity-batch-a4eff7fa-25d2-49e8-8f83-aa0b683a3179-attr-3-type" class="er entityLabel">DateTime</text><rect height="22" width="45.85894775390625" y="68" x="54.095550537109375" class="er attributeBoxOdd"/><text style="dominant-baseline: middle; font-size: 10.2px;" transform="translate(59.095550537109375,79)" y="0" x="0" id="text-entity-batch-a4eff7fa-25d2-49e8-8f83-aa0b683a3179-attr-3-name" class="er entityLabel">date</text><rect height="22" width="22.68768310546875" y="68" x="99.95449829101562" class="er attributeBoxOdd"/><text style="dominant-baseline: middle; font-size: 10.2px;" transform="translate(104.95449829101562,79)" y="0" x="0" id="text-entity-batch-a4eff7fa-25d2-49e8-8f83-aa0b683a3179-attr-3-key" class="er entityLabel"/></g><g transform="translate(455.20458602905273,64 )" id="entity-batchproduct-c99b1574-a715-4e19-9225-37f39677daf4"><rect height="46" width="108.51171875" y="0" x="0" class="er entityBox"/><text style="dominant-baseline: middle; text-anchor: middle; font-size: 12px;" transform="translate(54.255859375,12)" y="0" x="0" id="text-entity-batchproduct-c99b1574-a715-4e19-9225-37f39677daf4" class="er entityLabel">batch_product</text><rect height="22" width="41.36946105957031" y="24" x="0" class="er attributeBoxOdd"/><text style="dominant-baseline: middle; font-size: 10.2px;" transform="translate(5,35)" y="0" x="0" id="text-entity-batchproduct-c99b1574-a715-4e19-9225-37f39677daf4-attr-1-type" class="er entityLabel">Int</text><rect height="22" width="67.14225769042969" y="24" x="41.36946105957031" class="er attributeBoxOdd"/><text style="dominant-baseline: middle; font-size: 10.2px;" transform="translate(46.36946105957031,35)" y="0" x="0" id="text-entity-batchproduct-c99b1574-a715-4e19-9225-37f39677daf4-attr-1-name" class="er entityLabel">quantity</text></g><g transform="translate(557.4411087036133,254 )" id="entity-products-7e1d3de4-95be-40c7-abc7-6f1e7ae1113a"><rect height="112" width="130.7195281982422" y="0" x="0" class="er entityBox"/><text style="dominant-baseline: middle; text-anchor: middle; font-size: 12px;" transform="translate(65.3597640991211,12)" y="0" x="0" id="text-entity-products-7e1d3de4-95be-40c7-abc7-6f1e7ae1113a" class="er entityLabel">products</text><rect height="22" width="46.625" y="24" x="0" class="er attributeBoxOdd"/><text style="dominant-baseline: middle; font-size: 10.2px;" transform="translate(5,35)" y="0" x="0" id="text-entity-products-7e1d3de4-95be-40c7-abc7-6f1e7ae1113a-attr-1-type" class="er entityLabel">Int</text><rect height="22" width="61.40684509277344" y="24" x="46.625" class="er attributeBoxOdd"/><text style="dominant-baseline: middle; font-size: 10.2px;" transform="translate(51.625,35)" y="0" x="0" id="text-entity-products-7e1d3de4-95be-40c7-abc7-6f1e7ae1113a-attr-1-name" class="er entityLabel">id</text><rect height="22" width="22.68768310546875" y="24" x="108.03184509277344" class="er attributeBoxOdd"/><text style="dominant-baseline: middle; font-size: 10.2px;" transform="translate(113.03184509277344,35)" y="0" x="0" id="text-entity-products-7e1d3de4-95be-40c7-abc7-6f1e7ae1113a-attr-1-key" class="er entityLabel">PK</text><rect height="22" width="46.625" y="46" x="0" class="er attributeBoxEven"/><text style="dominant-baseline: middle; font-size: 10.2px;" transform="translate(5,57)" y="0" x="0" id="text-entity-products-7e1d3de4-95be-40c7-abc7-6f1e7ae1113a-attr-2-type" class="er entityLabel">String</text><rect height="22" width="61.40684509277344" y="46" x="46.625" class="er attributeBoxEven"/><text style="dominant-baseline: middle; font-size: 10.2px;" transform="translate(51.625,57)" y="0" x="0" id="text-entity-products-7e1d3de4-95be-40c7-abc7-6f1e7ae1113a-attr-2-name" class="er entityLabel">description</text><rect height="22" width="22.68768310546875" y="46" x="108.03184509277344" class="er attributeBoxEven"/><text style="dominant-baseline: middle; font-size: 10.2px;" transform="translate(113.03184509277344,57)" y="0" x="0" id="text-entity-products-7e1d3de4-95be-40c7-abc7-6f1e7ae1113a-attr-2-key" class="er entityLabel"/><rect height="22" width="46.625" y="68" x="0" class="er attributeBoxOdd"/><text style="dominant-baseline: middle; font-size: 10.2px;" transform="translate(5,79)" y="0" x="0" id="text-entity-products-7e1d3de4-95be-40c7-abc7-6f1e7ae1113a-attr-3-type" class="er entityLabel">String</text><rect height="22" width="61.40684509277344" y="68" x="46.625" class="er attributeBoxOdd"/><text style="dominant-baseline: middle; font-size: 10.2px;" transform="translate(51.625,79)" y="0" x="0" id="text-entity-products-7e1d3de4-95be-40c7-abc7-6f1e7ae1113a-attr-3-name" class="er entityLabel">ncmSh</text><rect height="22" width="22.68768310546875" y="68" x="108.03184509277344" class="er attributeBoxOdd"/><text style="dominant-baseline: middle; font-size: 10.2px;" transform="translate(113.03184509277344,79)" y="0" x="0" id="text-entity-products-7e1d3de4-95be-40c7-abc7-6f1e7ae1113a-attr-3-key" class="er entityLabel"/><rect height="22" width="46.625" y="90" x="0" class="er attributeBoxEven"/><text style="dominant-baseline: middle; font-size: 10.2px;" transform="translate(5,101)" y="0" x="0" id="text-entity-products-7e1d3de4-95be-40c7-abc7-6f1e7ae1113a-attr-4-type" class="er entityLabel">Decimal</text><rect height="22" width="61.40684509277344" y="90" x="46.625" class="er attributeBoxEven"/><text style="dominant-baseline: middle; font-size: 10.2px;" transform="translate(51.625,101)" y="0" x="0" id="text-entity-products-7e1d3de4-95be-40c7-abc7-6f1e7ae1113a-attr-4-name" class="er entityLabel">price</text><rect height="22" width="22.68768310546875" y="90" x="108.03184509277344" class="er attributeBoxEven"/><text style="dominant-baseline: middle; font-size: 10.2px;" transform="translate(113.03184509277344,101)" y="0" x="0" id="text-entity-products-7e1d3de4-95be-40c7-abc7-6f1e7ae1113a-attr-4-key" class="er entityLabel"/></g><g transform="translate(572.8008728027344,477 )" id="entity-categories-36af588b-3b95-4c02-8a29-6478aebac269"><rect height="68" width="100" y="0" x="0" class="er entityBox"/><text style="dominant-baseline: middle; text-anchor: middle; font-size: 12px;" transform="translate(50,12)" y="0" x="0" id="text-entity-categories-36af588b-3b95-4c02-8a29-6478aebac269" class="er entityLabel">categories</text><rect height="22" width="38.90184020996094" y="24" x="0" class="er attributeBoxOdd"/><text style="dominant-baseline: middle; font-size: 10.2px;" transform="translate(5,35)" y="0" x="0" id="text-entity-categories-36af588b-3b95-4c02-8a29-6478aebac269-attr-1-type" class="er entityLabel">Int</text><rect height="22" width="36.904693603515625" y="24" x="38.90184020996094" class="er attributeBoxOdd"/><text style="dominant-baseline: middle; font-size: 10.2px;" transform="translate(43.90184020996094,35)" y="0" x="0" id="text-entity-categories-36af588b-3b95-4c02-8a29-6478aebac269-attr-1-name" class="er entityLabel">id</text><rect height="22" width="24.193466186523438" y="24" x="75.80653381347656" class="er attributeBoxOdd"/><text style="dominant-baseline: middle; font-size: 10.2px;" transform="translate(80.80653381347656,35)" y="0" x="0" id="text-entity-categories-36af588b-3b95-4c02-8a29-6478aebac269-attr-1-key" class="er entityLabel">PK</text><rect height="22" width="38.90184020996094" y="46" x="0" class="er attributeBoxEven"/><text style="dominant-baseline: middle; font-size: 10.2px;" transform="translate(5,57)" y="0" x="0" id="text-entity-categories-36af588b-3b95-4c02-8a29-6478aebac269-attr-2-type" class="er entityLabel">String</text><rect height="22" width="36.904693603515625" y="46" x="38.90184020996094" class="er attributeBoxEven"/><text style="dominant-baseline: middle; font-size: 10.2px;" transform="translate(43.90184020996094,57)" y="0" x="0" id="text-entity-categories-36af588b-3b95-4c02-8a29-6478aebac269-attr-2-name" class="er entityLabel">name</text><rect height="22" width="24.193466186523438" y="46" x="75.80653381347656" class="er attributeBoxEven"/><text style="dominant-baseline: middle; font-size: 10.2px;" transform="translate(80.80653381347656,57)" y="0" x="0" id="text-entity-categories-36af588b-3b95-4c02-8a29-6478aebac269-attr-2-key" class="er entityLabel"/></g><g transform="translate(791.8561325073242,276 )" id="entity-usertypes-a57b7eea-a790-4e6d-9410-b2b27a843acc"><rect height="68" width="100" y="0" x="0" class="er entityBox"/><text style="dominant-baseline: middle; text-anchor: middle; font-size: 12px;" transform="translate(50,12)" y="0" x="0" id="text-entity-usertypes-a57b7eea-a790-4e6d-9410-b2b27a843acc" class="er entityLabel">user_types</text><rect height="22" width="38.90184020996094" y="24" x="0" class="er attributeBoxOdd"/><text style="dominant-baseline: middle; font-size: 10.2px;" transform="translate(5,35)" y="0" x="0" id="text-entity-usertypes-a57b7eea-a790-4e6d-9410-b2b27a843acc-attr-1-type" class="er entityLabel">Int</text><rect height="22" width="36.904693603515625" y="24" x="38.90184020996094" class="er attributeBoxOdd"/><text style="dominant-baseline: middle; font-size: 10.2px;" transform="translate(43.90184020996094,35)" y="0" x="0" id="text-entity-usertypes-a57b7eea-a790-4e6d-9410-b2b27a843acc-attr-1-name" class="er entityLabel">id</text><rect height="22" width="24.193466186523438" y="24" x="75.80653381347656" class="er attributeBoxOdd"/><text style="dominant-baseline: middle; font-size: 10.2px;" transform="translate(80.80653381347656,35)" y="0" x="0" id="text-entity-usertypes-a57b7eea-a790-4e6d-9410-b2b27a843acc-attr-1-key" class="er entityLabel">PK</text><rect height="22" width="38.90184020996094" y="46" x="0" class="er attributeBoxEven"/><text style="dominant-baseline: middle; font-size: 10.2px;" transform="translate(5,57)" y="0" x="0" id="text-entity-usertypes-a57b7eea-a790-4e6d-9410-b2b27a843acc-attr-2-type" class="er entityLabel">String</text><rect height="22" width="36.904693603515625" y="46" x="38.90184020996094" class="er attributeBoxEven"/><text style="dominant-baseline: middle; font-size: 10.2px;" transform="translate(43.90184020996094,57)" y="0" x="0" id="text-entity-usertypes-a57b7eea-a790-4e6d-9410-b2b27a843acc-attr-2-name" class="er entityLabel">name</text><rect height="22" width="24.193466186523438" y="46" x="75.80653381347656" class="er attributeBoxEven"/><text style="dominant-baseline: middle; font-size: 10.2px;" transform="translate(80.80653381347656,57)" y="0" x="0" id="text-entity-usertypes-a57b7eea-a790-4e6d-9410-b2b27a843acc-attr-2-key" class="er entityLabel"/></g><g transform="translate(773.3612365722656,20 )" id="entity-users-ca9eb283-3bb3-47bb-b817-111264ab68ed"><rect height="134" width="136.9897918701172" y="0" x="0" class="er entityBox"/><text style="dominant-baseline: middle; text-anchor: middle; font-size: 12px;" transform="translate(68.4948959350586,12)" y="0" x="0" id="text-entity-users-ca9eb283-3bb3-47bb-b817-111264ab68ed" class="er entityLabel">users</text><rect height="22" width="37.39605712890625" y="24" x="0" class="er attributeBoxOdd"/><text style="dominant-baseline: middle; font-size: 10.2px;" transform="translate(5,35)" y="0" x="0" id="text-entity-users-ca9eb283-3bb3-47bb-b817-111264ab68ed-attr-1-type" class="er entityLabel">Int</text><rect height="22" width="76.90605163574219" y="24" x="37.39605712890625" class="er attributeBoxOdd"/><text style="dominant-baseline: middle; font-size: 10.2px;" transform="translate(42.39605712890625,35)" y="0" x="0" id="text-entity-users-ca9eb283-3bb3-47bb-b817-111264ab68ed-attr-1-name" class="er entityLabel">id</text><rect height="22" width="22.68768310546875" y="24" x="114.30210876464844" class="er attributeBoxOdd"/><text style="dominant-baseline: middle; font-size: 10.2px;" transform="translate(119.30210876464844,35)" y="0" x="0" id="text-entity-users-ca9eb283-3bb3-47bb-b817-111264ab68ed-attr-1-key" class="er entityLabel">PK</text><rect height="22" width="37.39605712890625" y="46" x="0" class="er attributeBoxEven"/><text style="dominant-baseline: middle; font-size: 10.2px;" transform="translate(5,57)" y="0" x="0" id="text-entity-users-ca9eb283-3bb3-47bb-b817-111264ab68ed-attr-2-type" class="er entityLabel">String</text><rect height="22" width="76.90605163574219" y="46" x="37.39605712890625" class="er attributeBoxEven"/><text style="dominant-baseline: middle; font-size: 10.2px;" transform="translate(42.39605712890625,57)" y="0" x="0" id="text-entity-users-ca9eb283-3bb3-47bb-b817-111264ab68ed-attr-2-name" class="er entityLabel">name</text><rect height="22" width="22.68768310546875" y="46" x="114.30210876464844" class="er attributeBoxEven"/><text style="dominant-baseline: middle; font-size: 10.2px;" transform="translate(119.30210876464844,57)" y="0" x="0" id="text-entity-users-ca9eb283-3bb3-47bb-b817-111264ab68ed-attr-2-key" class="er entityLabel"/><rect height="22" width="37.39605712890625" y="68" x="0" class="er attributeBoxOdd"/><text style="dominant-baseline: middle; font-size: 10.2px;" transform="translate(5,79)" y="0" x="0" id="text-entity-users-ca9eb283-3bb3-47bb-b817-111264ab68ed-attr-3-type" class="er entityLabel">String</text><rect height="22" width="76.90605163574219" y="68" x="37.39605712890625" class="er attributeBoxOdd"/><text style="dominant-baseline: middle; font-size: 10.2px;" transform="translate(42.39605712890625,79)" y="0" x="0" id="text-entity-users-ca9eb283-3bb3-47bb-b817-111264ab68ed-attr-3-name" class="er entityLabel">user_login</text><rect height="22" width="22.68768310546875" y="68" x="114.30210876464844" class="er attributeBoxOdd"/><text style="dominant-baseline: middle; font-size: 10.2px;" transform="translate(119.30210876464844,79)" y="0" x="0" id="text-entity-users-ca9eb283-3bb3-47bb-b817-111264ab68ed-attr-3-key" class="er entityLabel"/><rect height="22" width="37.39605712890625" y="90" x="0" class="er attributeBoxEven"/><text style="dominant-baseline: middle; font-size: 10.2px;" transform="translate(5,101)" y="0" x="0" id="text-entity-users-ca9eb283-3bb3-47bb-b817-111264ab68ed-attr-4-type" class="er entityLabel">String</text><rect height="22" width="76.90605163574219" y="90" x="37.39605712890625" class="er attributeBoxEven"/><text style="dominant-baseline: middle; font-size: 10.2px;" transform="translate(42.39605712890625,101)" y="0" x="0" id="text-entity-users-ca9eb283-3bb3-47bb-b817-111264ab68ed-attr-4-name" class="er entityLabel">user_password</text><rect height="22" width="22.68768310546875" y="90" x="114.30210876464844" class="er attributeBoxEven"/><text style="dominant-baseline: middle; font-size: 10.2px;" transform="translate(119.30210876464844,101)" y="0" x="0" id="text-entity-users-ca9eb283-3bb3-47bb-b817-111264ab68ed-attr-4-key" class="er entityLabel"/><rect height="22" width="37.39605712890625" y="112" x="0" class="er attributeBoxOdd"/><text style="dominant-baseline: middle; font-size: 10.2px;" transform="translate(5,123)" y="0" x="0" id="text-entity-users-ca9eb283-3bb3-47bb-b817-111264ab68ed-attr-5-type" class="er entityLabel">String</text><rect height="22" width="76.90605163574219" y="112" x="37.39605712890625" class="er attributeBoxOdd"/><text style="dominant-baseline: middle; font-size: 10.2px;" transform="translate(42.39605712890625,123)" y="0" x="0" id="text-entity-users-ca9eb283-3bb3-47bb-b817-111264ab68ed-attr-5-name" class="er entityLabel">email</text><rect height="22" width="22.68768310546875" y="112" x="114.30210876464844" class="er attributeBoxOdd"/><text style="dominant-baseline: middle; font-size: 10.2px;" transform="translate(119.30210876464844,123)" y="0" x="0" id="text-entity-users-ca9eb283-3bb3-47bb-b817-111264ab68ed-attr-5-key" class="er entityLabel"/></g><rect height="14" width="128.828125" y="811" x="118.58935546875" class="er relationshipLabelBox"/><text style="text-anchor: middle; dominant-baseline: middle; font-size: 12px;" y="818" x="183.00341796875" id="rel1" class="er relationshipLabel">company_address_id_fk</text><rect height="14" width="134.48828125" y="599.9943237304688" x="20.950408935546875" class="er relationshipLabelBox"/><text style="text-anchor: middle; dominant-baseline: middle; font-size: 12px;" y="606.9943237304688" x="88.19454956054688" id="rel2" class="er relationshipLabel">company_cnpj_phone_fk</text><rect height="14" width="95.412109375" y="605.0226440429688" x="228.1280517578125" class="er relationshipLabelBox"/><text style="text-anchor: middle; dominant-baseline: middle; font-size: 12px;" y="612.0226440429688" x="275.8341064453125" id="rel3" class="er relationshipLabel">company_cnpj_fk</text><rect height="14" width="116.16015625" y="407.411865234375" x="131.1884765625" class="er relationshipLabelBox"/><text style="text-anchor: middle; dominant-baseline: middle; font-size: 12px;" y="414.411865234375" x="189.2685546875" id="rel4" class="er relationshipLabel">supplier_phone_id_fk</text><rect height="14" width="77.083984375" y="412.4516906738281" x="344.8795471191406" class="er relationshipLabelBox"/><text style="text-anchor: middle; dominant-baseline: middle; font-size: 12px;" y="419.4516906738281" x="383.4215393066406" id="rel5" class="er relationshipLabel">supplier_id_fk</text><rect height="14" width="75.859375" y="167.53509521484375" x="553.4317016601562" class="er relationshipLabelBox"/><text style="text-anchor: middle; dominant-baseline: middle; font-size: 12px;" y="174.53509521484375" x="591.3613891601562" id="rel6" class="er relationshipLabel">product_id_fk</text><rect height="14" width="95.236328125" y="171.88758850097656" x="377.07879638671875" class="er relationshipLabelBox"/><text style="text-anchor: middle; dominant-baseline: middle; font-size: 12px;" y="178.88758850097656" x="424.69696044921875" id="rel7" class="er relationshipLabel">number_batch_fk</text><rect height="14" width="80.72265625" y="414.5" x="582.4395751953125" class="er relationshipLabelBox"/><text style="text-anchor: middle; dominant-baseline: middle; font-size: 12px;" y="421.5" x="622.8009033203125" id="rel8" class="er relationshipLabel">id_category_fk</text><rect height="14" width="86.951171875" y="208" x="798.3805541992188" class="er relationshipLabelBox"/><text style="text-anchor: middle; dominant-baseline: middle; font-size: 12px;" y="215" x="841.8561401367188" id="rel9" class="er relationshipLabel">user_type_id_fk</text></svg>